<?xml version="1.0" encoding="UTF-8"?>
<svg width="140.59mm" height="71.542mm" version="1.1" viewBox="0 0 140.59 71.542" xmlns="http://www.w3.org/2000/svg" xmlns:xlink="http://www.w3.org/1999/xlink">
	<defs>
		<linearGradient id="a" x1="-44.39" x2="96.203" y1="113.19" y2="113.19" gradientUnits="userSpaceOnUse">
			<stop stop-color="#2d2b55" offset="0"/>
			<stop stop-color="#2d2b55" stop-opacity="0" offset="1"/>
		</linearGradient>
	</defs>
	<g transform="translate(44.39 -76.644)">
		<path d="m-37.02 115.59c3.1663-4.4996-0.05073 0.19056 1.9783-3.0276 0.32384-0.51364 0.66299-1.0194 1.0201-1.5138 0.44509-0.6163 1.0459-1.1445 1.391-1.8134 0.13999-0.27137-0.49207 0.40122-0.68004 0.64653-0.28006 0.36548-0.5523 0.73669-0.80369 1.1196-0.99475 1.5151-2.0618 2.9972-2.9056 4.5888-1.3167 2.4835-1.3569 3.9859 1.4528 1.2615 2.2937-2.224 4.2628-4.5007 6.7695-6.5284 0.11985-0.0969 1.5171-1.2846 1.8547-1.1984 0.20778 0.053-0.24204 0.99755-0.58731 1.6558-0.30464 0.58073-4.0797 6.8755-3.3384 7.1118 1.2176 0.38821 5.0848-3.5344 5.5949-3.9738 2.2229-1.9146 2.1891-1.8902 4.6985-3.7372 0.93903-0.69118 2.4114-1.7477 2.5347-1.6715 0.24839 0.1534-0.09888 0.55025-0.21638 0.80423-0.43751 0.94563-3.2118 5.3475-2.442 6.3234 0.34184 0.43333 1.6426-0.47513 2.6584-1.23 2.8425-2.1125 5.2599-4.0848 8.5624-5.5507 0.79285-0.35194 2.5096-1.0699 2.8747-0.63076 0.46808 0.56285-1.7188 4.8126-1.6383 6.0553 0.071551 1.1042 1.6772-0.0147 1.8547-0.11038 3.9378-2.1236 7.3377-5.0765 11.932-5.9765 0.85712-0.1679 0.53114 0.89419 0.46367 1.1038-0.43184 1.3418-2.0713 3.7518-1.7619 5.2668 0.19651 0.96236 1.1786 0.35369 1.6692 0.12615 2.0597-0.95519 3.3714-3.2019 5.4713-4.0053 1.8909-0.72348-2.8789 6.7896 0.92734 5.8188 0.57248-0.14602 3.1186-1.6241 3.4002-1.7819 2.27-1.2718 4.835-3.092 7.6041-3.3746 2.6088-0.26618-0.57226 4.9468 1.7619 4.573 1.0845-0.1737 4.7082-2.17 5.0694-2.3496 2.0661-1.027 4.2675-2.0923 6.4604-2.8542 1.1603-0.40313 2.3536-0.7264 3.5548-1.0092 0.41176-0.0969 0.87473-0.27637 1.2674-0.12616 2.2663 0.86711-2.488 5.2737 0.5564 5.3772 2.0511 0.0697 5.4217-2.1639 8.2842-2.2392 2.9841-0.0784-0.78855 4.5816 2.071 3.3273 4.1874-1.8368 7.8739-4.6376 12.55-5.393 3.2516-0.52528-1.8864 4.365 0.89642 5.2668 0.68808 0.223 3.9833-1.0775 4.1421-1.1354 2.5069-0.91348 4.058-1.7315 6.9241-1.9869 1.806-0.16096 0.33952 1.2515 1.4219 1.2458 2.2401-0.0119 4.1592-0.77004 6.275-1.3877 0.2006-0.0586 3.5251-1.1219 3.7403-0.81999 0.3197 0.4485-0.37534 1.0266-0.43276 1.5611-0.19535 1.8187 0.65846 1.7731 2.1329 1.4507" fill="none" stroke="url(#a)" stroke-linecap="round" stroke-linejoin="round" stroke-width="12.417" style="paint-order:normal"/>
		<g transform="matrix(.59416 0 0 .59416 27.465 1.9831)" fill="#f0f" stroke-width=".26458" style="inline-size:73.0615;white-space:pre" aria-label="parentheses contain params">
			<path d="m-5.9756 128.55v0.17053q0.39791-0.49092 0.82682-0.7183 0.42891-0.23254 0.97151-0.23254 0.65112 0 1.1989 0.3359 0.54777 0.33589 0.86299 0.98185 0.32039 0.64595 0.32039 1.5296 0 0.65112-0.18603 1.1989-0.18087 0.5426-0.50126 0.91467-0.32039 0.3669-0.75964 0.56844-0.43408 0.19637-0.93534 0.19637-0.60461 0-1.018-0.24288-0.40824-0.24288-0.78031-0.71313v2.1187q0 0.93017-0.67696 0.93017-0.39791 0-0.5271-0.24288-0.12919-0.23771-0.12919-0.69763v-6.0875q0-0.40308 0.1757-0.59945 0.1757-0.20153 0.48059-0.20153 0.29972 0 0.48576 0.2067 0.1912 0.20154 0.1912 0.58394zm2.7647 2.0516q0-0.5581-0.17053-0.95601-0.17053-0.40308-0.47542-0.61495-0.29972-0.21704-0.66662-0.21704-0.58394 0-0.98702 0.45992-0.39791 0.45992-0.39791 1.3539 0 0.84232 0.39791 1.3126 0.39791 0.46508 0.98702 0.46508 0.3514 0 0.65112-0.20154 0.29972-0.2067 0.48059-0.61494 0.18087-0.40825 0.18087-0.98702z"/>
			<path d="m2.9024 132.7q-0.5116 0.3979-0.99218 0.59944-0.47542 0.19637-1.0697 0.19637-0.5426 0-0.95601-0.21187-0.40824-0.21704-0.63045-0.58394t-0.22221-0.79582q0-0.57877 0.3669-0.98701 0.3669-0.40825 1.0077-0.54777 0.13436-0.031 0.66662-0.13953 0.53227-0.10852 0.9095-0.19637 0.3824-0.093 0.82682-0.22221-0.025838-0.5581-0.22738-0.81648-0.19637-0.26355-0.82165-0.26355-0.53743 0-0.81132 0.14986-0.26872 0.14986-0.46509 0.44958-0.1912 0.29973-0.27388 0.39791-0.077514 0.093-0.34106 0.093-0.23771 0-0.41341-0.14986-0.17053-0.15503-0.17053-0.39274 0-0.37207 0.26355-0.72347 0.26355-0.3514 0.82165-0.57877 0.5581-0.22738 1.3901-0.22738 0.93017 0 1.4624 0.22221 0.53227 0.21704 0.74931 0.69246 0.22221 0.47542 0.22221 1.2609 0 0.49609-0.00517 0.84232 0 0.34624-0.00517 0.76998 0 0.39791 0.12919 0.83199 0.13436 0.42891 0.13436 0.55293 0 0.21705-0.20671 0.39791-0.20154 0.1757-0.45992 0.1757-0.21704 0-0.42891-0.20154-0.21187-0.2067-0.44958-0.59427zm-0.093017-2.0412q-0.31006 0.11369-0.90433 0.24288-0.58911 0.12403-0.81648 0.18604-0.22738 0.0568-0.43408 0.23254-0.20671 0.17053-0.20671 0.48059 0 0.32039 0.24288 0.54777 0.24288 0.22221 0.63562 0.22221 0.41858 0 0.76998-0.18087 0.35657-0.18604 0.52193-0.47542 0.1912-0.3204 0.1912-1.0542z"/>
			<path d="m7.0262 131.46v1.1782q0 0.42891-0.20154 0.64595-0.20154 0.21187-0.5116 0.21187-0.30489 0-0.50126-0.21704-0.19637-0.21704-0.19637-0.64078v-3.9274q0-0.95084 0.68729-0.95084 0.3514 0 0.50643 0.2222 0.15503 0.22221 0.17053 0.65629 0.25321-0.43408 0.51676-0.65629 0.26872-0.2222 0.71313-0.2222t0.86299 0.2222q0.41858 0.22221 0.41858 0.58911 0 0.25838-0.18087 0.42892-0.1757 0.16536-0.3824 0.16536-0.077514 0-0.37724-0.093-0.29455-0.0982-0.52193-0.0982-0.31006 0-0.50643 0.16536-0.19637 0.1602-0.30489 0.48059-0.10852 0.32039-0.14986 0.76481-0.041341 0.43925-0.041341 1.0749z"/>
			<path d="m13.935 130.97h-2.7595q0.0052 0.48059 0.1912 0.84749 0.1912 0.3669 0.50126 0.55294 0.31523 0.18603 0.69246 0.18603 0.25321 0 0.45992-0.0568 0.21187-0.062 0.40824-0.18604 0.19637-0.12919 0.36173-0.27388 0.16536-0.1447 0.42891-0.39274 0.10852-0.093 0.31006-0.093 0.21704 0 0.3514 0.11886 0.13436 0.11885 0.13436 0.33589 0 0.1912-0.14986 0.44959-0.14986 0.25321-0.45475 0.49092-0.29972 0.23254-0.75964 0.38757-0.45475 0.15503-1.049 0.15503-1.3591 0-2.1136-0.77514-0.75447-0.77515-0.75447-2.1032 0-0.62528 0.18603-1.1576 0.18604-0.53743 0.5426-0.91983 0.35657-0.38241 0.8785-0.58394 0.52193-0.20671 1.1575-0.20671 0.82682 0 1.4159 0.3514 0.59428 0.34623 0.88883 0.89917 0.29456 0.55293 0.29456 1.1265 0 0.53226-0.30489 0.69246-0.30489 0.15503-0.85783 0.15503zm-2.7595-0.80098h2.558q-0.05168-0.72347-0.39274-1.08-0.3359-0.36173-0.88883-0.36173-0.5271 0-0.86816 0.3669-0.3359 0.36173-0.40824 1.0749z"/>
			<path d="m17.568 128.54v0.17053q0.37207-0.49093 0.81132-0.7183 0.44442-0.23254 1.018-0.23254 0.5581 0 0.99735 0.24287 0.43925 0.24288 0.65629 0.6873 0.13953 0.25838 0.18087 0.5581 0.04134 0.29972 0.04134 0.76481v2.6252q0 0.42374-0.19637 0.64078-0.1912 0.21704-0.50126 0.21704-0.31522 0-0.5116-0.22221-0.19637-0.2222-0.19637-0.63561v-2.3513q0-0.69763-0.19637-1.0645-0.1912-0.37206-0.76998-0.37206-0.37724 0-0.68729 0.22737-0.31006 0.22221-0.45475 0.61495-0.10335 0.31522-0.10335 1.1782v1.7673q0 0.42891-0.20154 0.64595-0.19637 0.21187-0.5116 0.21187-0.30489 0-0.50126-0.22221-0.19637-0.2222-0.19637-0.63561v-4.0773q0-0.40308 0.1757-0.59945 0.1757-0.20153 0.48059-0.20153 0.18604 0 0.3359 0.0879t0.23771 0.26354q0.09302 0.1757 0.09302 0.42892z"/>
			<path d="m22.756 127.88h0.15503v-0.84749q0-0.34107 0.0155-0.53227 0.02067-0.19637 0.10335-0.33589 0.08268-0.1447 0.23771-0.23255 0.15503-0.093 0.34623-0.093 0.26872 0 0.48576 0.20153 0.14469 0.13436 0.18087 0.33073 0.04134 0.1912 0.04134 0.54777v0.96118h0.51676q0.29972 0 0.45475 0.14469 0.1602 0.13953 0.1602 0.36174 0 0.28422-0.22738 0.3979-0.22221 0.11369-0.64079 0.11369h-0.26355v2.5942q0 0.33073 0.02067 0.51159 0.02584 0.1757 0.12402 0.28939 0.10335 0.10852 0.33073 0.10852 0.12402 0 0.3359-0.0413 0.21187-0.0465 0.33073-0.0465 0.17053 0 0.30489 0.13953 0.13952 0.13436 0.13952 0.33589 0 0.34107-0.37207 0.52193-0.37207 0.18087-1.0697 0.18087-0.66146 0-1.0025-0.22221-0.34106-0.2222-0.44958-0.61494-0.10335-0.39274-0.10335-1.049v-2.7078h-0.18604q-0.30489 0-0.46509-0.14469-0.1602-0.1447-0.1602-0.3669 0-0.22221 0.16536-0.36174 0.17053-0.14469 0.49092-0.14469z"/>
			<path d="m27.805 126.52v2.0929q0.26872-0.31005 0.52193-0.49092 0.25838-0.18087 0.56844-0.26872 0.31006-0.093 0.66662-0.093 0.53743 0 0.95084 0.22737 0.41858 0.22738 0.65629 0.66146 0.14986 0.25321 0.20154 0.56844 0.05168 0.31005 0.05168 0.7183v2.7027q0 0.42374-0.19637 0.64078-0.1912 0.21704-0.5116 0.21704-0.69763 0-0.69763-0.85782v-2.3823q0-0.67696-0.20154-1.0387-0.20154-0.3669-0.76481-0.3669-0.37724 0-0.68213 0.21704-0.29972 0.21187-0.44958 0.58394-0.11369 0.31522-0.11369 1.1214v1.8655q0 0.41857-0.1912 0.64078-0.18604 0.21704-0.52193 0.21704-0.69763 0-0.69763-0.85782v-6.1185q0-0.42892 0.18087-0.64079 0.18603-0.21704 0.51676-0.21704 0.3359 0 0.52193 0.21704 0.1912 0.21704 0.1912 0.64079z"/>
			<path d="m36.756 130.97h-2.7595q0.0052 0.48059 0.1912 0.84749 0.1912 0.3669 0.50126 0.55294 0.31523 0.18603 0.69246 0.18603 0.25321 0 0.45992-0.0568 0.21187-0.062 0.40824-0.18604 0.19637-0.12919 0.36173-0.27388 0.16536-0.1447 0.42891-0.39274 0.10852-0.093 0.31006-0.093 0.21704 0 0.3514 0.11886 0.13436 0.11885 0.13436 0.33589 0 0.1912-0.14986 0.44959-0.14986 0.25321-0.45475 0.49092-0.29972 0.23254-0.75964 0.38757-0.45475 0.15503-1.049 0.15503-1.3591 0-2.1136-0.77514-0.75447-0.77515-0.75447-2.1032 0-0.62528 0.18604-1.1576 0.18604-0.53743 0.5426-0.91983 0.35657-0.38241 0.8785-0.58394 0.52193-0.20671 1.1575-0.20671 0.82682 0 1.4159 0.3514 0.59428 0.34623 0.88883 0.89917 0.29456 0.55293 0.29456 1.1265 0 0.53226-0.30489 0.69246-0.30489 0.15503-0.85783 0.15503zm-2.7595-0.80098h2.558q-0.05168-0.72347-0.39274-1.08-0.3359-0.36173-0.88883-0.36173-0.5271 0-0.86816 0.3669-0.3359 0.36173-0.40824 1.0749z"/>
			<path d="m43.649 131.65q0 0.58394-0.28422 1.0025-0.28422 0.41341-0.84232 0.63045-0.55294 0.21187-1.3488 0.21187-0.75964 0-1.3022-0.23254-0.5426-0.23254-0.80098-0.57878-0.25838-0.35139-0.25838-0.70279 0-0.23255 0.16536-0.39791t0.41858-0.16536q0.22221 0 0.34106 0.10852 0.11886 0.10852 0.22738 0.30489 0.21704 0.37723 0.51676 0.56327 0.30489 0.18603 0.82682 0.18603 0.42374 0 0.69246-0.18603 0.27388-0.19121 0.27388-0.43408 0-0.37207-0.28422-0.5426-0.27905-0.17054-0.92501-0.32556-0.72864-0.18087-1.1886-0.37724-0.45475-0.20154-0.72864-0.5271t-0.27388-0.80098q0-0.42375 0.25321-0.80098 0.25321-0.37724 0.74414-0.59945 0.49609-0.22737 1.1937-0.22737 0.54777 0 0.98185 0.11368 0.43925 0.11369 0.72864 0.30489 0.29456 0.19121 0.44442 0.42375 0.15503 0.23254 0.15503 0.45475 0 0.24288-0.16536 0.39791-0.1602 0.15503-0.45992 0.15503-0.21704 0-0.37207-0.12403-0.14986-0.12402-0.34623-0.37207-0.1602-0.2067-0.37724-0.33072-0.21704-0.12403-0.58911-0.12403-0.3824 0-0.63562 0.16537-0.25321 0.16019-0.25321 0.40307 0 0.22221 0.18603 0.3669 0.18604 0.13953 0.50126 0.23255 0.31522 0.093 0.86816 0.22737 0.65629 0.1602 1.0697 0.38241 0.41858 0.2222 0.63045 0.52709 0.21704 0.29973 0.21704 0.6873z"/>
			<path d="m48.781 130.97h-2.7595q0.0052 0.48059 0.1912 0.84749 0.1912 0.3669 0.50126 0.55294 0.31522 0.18603 0.69246 0.18603 0.25321 0 0.45992-0.0568 0.21187-0.062 0.40824-0.18604 0.19637-0.12919 0.36173-0.27388 0.16536-0.1447 0.42891-0.39274 0.10852-0.093 0.31006-0.093 0.21704 0 0.3514 0.11886 0.13436 0.11885 0.13436 0.33589 0 0.1912-0.14986 0.44959-0.14986 0.25321-0.45475 0.49092-0.29972 0.23254-0.75964 0.38757-0.45475 0.15503-1.049 0.15503-1.3591 0-2.1136-0.77514-0.75447-0.77515-0.75447-2.1032 0-0.62528 0.18603-1.1576 0.18604-0.53743 0.5426-0.91983 0.35657-0.38241 0.8785-0.58394 0.52193-0.20671 1.1575-0.20671 0.82682 0 1.4159 0.3514 0.59428 0.34623 0.88883 0.89917 0.29455 0.55293 0.29455 1.1265 0 0.53226-0.30489 0.69246-0.30489 0.15503-0.85783 0.15503zm-2.7595-0.80098h2.558q-0.05168-0.72347-0.39274-1.08-0.3359-0.36173-0.88883-0.36173-0.5271 0-0.86816 0.3669-0.3359 0.36173-0.40824 1.0749z"/>
			<path d="m55.674 131.65q0 0.58394-0.28422 1.0025-0.28422 0.41341-0.84232 0.63045-0.55294 0.21187-1.3488 0.21187-0.75964 0-1.3022-0.23254t-0.80098-0.57878q-0.25838-0.35139-0.25838-0.70279 0-0.23255 0.16536-0.39791t0.41858-0.16536q0.22221 0 0.34106 0.10852 0.11886 0.10852 0.22738 0.30489 0.21704 0.37723 0.51676 0.56327 0.30489 0.18603 0.82682 0.18603 0.42374 0 0.69246-0.18603 0.27388-0.19121 0.27388-0.43408 0-0.37207-0.28422-0.5426-0.27905-0.17054-0.925-0.32556-0.72864-0.18087-1.1886-0.37724-0.45475-0.20154-0.72864-0.5271t-0.27388-0.80098q0-0.42375 0.25321-0.80098 0.25321-0.37724 0.74414-0.59945 0.49609-0.22737 1.1937-0.22737 0.54777 0 0.98185 0.11368 0.43925 0.11369 0.72864 0.30489 0.29456 0.19121 0.44442 0.42375 0.15503 0.23254 0.15503 0.45475 0 0.24288-0.16536 0.39791-0.1602 0.15503-0.45992 0.15503-0.21704 0-0.37207-0.12403-0.14986-0.12402-0.34623-0.37207-0.1602-0.2067-0.37724-0.33072-0.21704-0.12403-0.58911-0.12403-0.3824 0-0.63562 0.16537-0.25321 0.16019-0.25321 0.40307 0 0.22221 0.18603 0.3669 0.18604 0.13953 0.50126 0.23255 0.31522 0.093 0.86816 0.22737 0.65629 0.1602 1.0697 0.38241 0.41858 0.2222 0.63045 0.52709 0.21704 0.29973 0.21704 0.6873z"/>
			<path d="m10.669 144.97q0 0.26354-0.1602 0.56327-0.15503 0.29972-0.48059 0.5736-0.32039 0.26872-0.81132 0.43408-0.49092 0.16537-1.1059 0.16537-1.3074 0-2.0412-0.75964-0.7338-0.76481-0.7338-2.0464 0-0.86816 0.3359-1.5348 0.3359-0.66662 0.97151-1.0284 0.63562-0.3669 1.5193-0.3669 0.54777 0 1.0025 0.1602 0.45992 0.1602 0.77514 0.41341 0.32039 0.25321 0.48576 0.5426 0.17053 0.28422 0.17053 0.53227 0 0.25321-0.1912 0.42891-0.18604 0.1757-0.45475 0.1757-0.1757 0-0.29455-0.0879-0.11369-0.093-0.25838-0.29456-0.25838-0.39274-0.5426-0.58911-0.27905-0.19637-0.71313-0.19637-0.62528 0-1.0077 0.49093-0.3824 0.48576-0.3824 1.3332 0 0.3979 0.098185 0.7338 0.098185 0.33073 0.28422 0.56844 0.18603 0.23254 0.44958 0.35656 0.26355 0.11886 0.57877 0.11886 0.42375 0 0.72347-0.19637 0.30489-0.19637 0.53743-0.59944 0.12919-0.23772 0.27905-0.37207 0.14986-0.13436 0.3669-0.13436 0.25838 0 0.42891 0.19637t0.17053 0.41858z"/>
			<path d="m17.181 143.85q0 0.63045-0.19637 1.1627-0.19637 0.53226-0.56844 0.91467-0.37207 0.3824-0.88883 0.58911-0.51676 0.20153-1.1627 0.20153-0.64079 0-1.1524-0.2067-0.5116-0.20671-0.88883-0.58911-0.37207-0.38757-0.56844-0.9095-0.1912-0.5271-0.1912-1.1627 0-0.64078 0.19637-1.173t0.56327-0.9095q0.3669-0.37724 0.88883-0.57878 0.52193-0.2067 1.1524-0.2067 0.64079 0 1.1627 0.2067 0.52193 0.20671 0.894 0.58911 0.37207 0.38241 0.56327 0.9095 0.19637 0.5271 0.19637 1.1627zm-1.4159 0q0-0.86299-0.3824-1.3436-0.37724-0.48059-1.018-0.48059-0.41341 0-0.72864 0.21704-0.31522 0.21187-0.48576 0.63045t-0.17053 0.97668q0 0.55294 0.16536 0.96635 0.17053 0.41341 0.48059 0.63562 0.31522 0.21704 0.73897 0.21704 0.64079 0 1.018-0.48059 0.3824-0.48576 0.3824-1.3384z"/>
			<path d="m19.573 141.77v0.17053q0.37207-0.49092 0.81132-0.7183 0.44442-0.23254 1.018-0.23254 0.5581 0 0.99735 0.24288t0.65629 0.68729q0.13952 0.25838 0.18087 0.5581 0.04134 0.29973 0.04134 0.76481v2.6252q0 0.42374-0.19637 0.64078-0.1912 0.21704-0.50126 0.21704-0.31522 0-0.5116-0.2222-0.19637-0.22221-0.19637-0.63562v-2.3513q0-0.69763-0.19637-1.0645-0.1912-0.37207-0.76998-0.37207-0.37724 0-0.6873 0.22737-0.31006 0.22221-0.45475 0.61495-0.10335 0.31523-0.10335 1.1782v1.7673q0 0.42891-0.20154 0.64595-0.19637 0.21187-0.5116 0.21187-0.30489 0-0.50126-0.2222-0.19637-0.22221-0.19637-0.63562v-4.0773q0-0.40307 0.1757-0.59944 0.1757-0.20154 0.48059-0.20154 0.18604 0 0.3359 0.0879t0.23771 0.26355q0.09302 0.1757 0.09302 0.42891z"/>
			<path d="m24.761 141.11h0.15503v-0.84749q0-0.34106 0.0155-0.53227 0.02067-0.19637 0.10335-0.33589 0.08268-0.14469 0.23771-0.23254 0.15503-0.093 0.34623-0.093 0.26872 0 0.48576 0.20154 0.14469 0.13435 0.18087 0.33072 0.04134 0.19121 0.04134 0.54777v0.96118h0.51676q0.29972 0 0.45475 0.14469 0.1602 0.13953 0.1602 0.36174 0 0.28422-0.22738 0.39791-0.22221 0.11368-0.64079 0.11368h-0.26355v2.5942q0 0.33073 0.02067 0.5116 0.02584 0.1757 0.12402 0.28938 0.10335 0.10852 0.33073 0.10852 0.12402 0 0.3359-0.0413 0.21187-0.0465 0.33073-0.0465 0.17053 0 0.30489 0.13953 0.13953 0.13436 0.13953 0.3359 0 0.34106-0.37207 0.52193-0.37207 0.18086-1.0697 0.18086-0.66146 0-1.0025-0.2222-0.34106-0.22221-0.44958-0.61495-0.10335-0.39274-0.10335-1.049v-2.7078h-0.18604q-0.30489 0-0.46509-0.14469-0.1602-0.14469-0.1602-0.3669t0.16536-0.36174q0.17053-0.14469 0.49092-0.14469z"/>
			<path d="m31.996 145.93q-0.5116 0.39791-0.99218 0.59944-0.47542 0.19637-1.0697 0.19637-0.5426 0-0.95601-0.21187-0.40824-0.21704-0.63045-0.58394t-0.22221-0.79582q0-0.57877 0.3669-0.98701 0.3669-0.40824 1.0077-0.54777 0.13436-0.031 0.66662-0.13953 0.53226-0.10852 0.9095-0.19637 0.3824-0.093 0.82682-0.2222-0.02584-0.55811-0.22738-0.81649-0.19637-0.26355-0.82165-0.26355-0.53743 0-0.81132 0.14986-0.26872 0.14986-0.46509 0.44959-0.1912 0.29972-0.27388 0.3979-0.07751 0.093-0.34106 0.093-0.23771 0-0.41341-0.14986-0.17053-0.15503-0.17053-0.39274 0-0.37207 0.26355-0.72347t0.82165-0.57877q0.5581-0.22738 1.3901-0.22738 0.93017 0 1.4624 0.22221 0.53226 0.21704 0.7493 0.69246 0.22221 0.47542 0.22221 1.2609 0 0.4961-0.0052 0.84233 0 0.34623-0.0052 0.76997 0 0.39791 0.12919 0.83199 0.13436 0.42891 0.13436 0.55294 0 0.21704-0.2067 0.3979-0.20154 0.1757-0.45992 0.1757-0.21704 0-0.42891-0.20153-0.21187-0.20671-0.44958-0.59428zm-0.09302-2.0412q-0.31006 0.11368-0.90433 0.24288-0.58911 0.12402-0.81648 0.18603-0.22738 0.0568-0.43408 0.23254-0.2067 0.17053-0.2067 0.48059 0 0.3204 0.24288 0.54777 0.24288 0.22221 0.63562 0.22221 0.41858 0 0.76998-0.18087 0.35657-0.18603 0.52193-0.47542 0.1912-0.32039 0.1912-1.0542z"/>
			<path d="m36.13 141.79v4.0773q0 0.42374-0.20154 0.64078-0.20154 0.21704-0.5116 0.21704-0.31006 0-0.50643-0.2222-0.1912-0.22221-0.1912-0.63562v-4.0359q0-0.41858 0.1912-0.63045 0.19637-0.21187 0.50643-0.21187 0.31006 0 0.5116 0.21187 0.20154 0.21187 0.20154 0.58911zm-0.69763-1.4573q-0.29456 0-0.50643-0.18087-0.2067-0.18086-0.2067-0.51159 0-0.29972 0.21187-0.49093 0.21704-0.19637 0.50126-0.19637 0.27388 0 0.48576 0.1757t0.21187 0.5116q0 0.32556-0.2067 0.51159-0.2067 0.18087-0.49092 0.18087z"/>
			<path d="m38.869 141.77v0.17053q0.37207-0.49092 0.81132-0.7183 0.44442-0.23254 1.018-0.23254 0.5581 0 0.99735 0.24288 0.43925 0.24288 0.65629 0.68729 0.13953 0.25838 0.18087 0.5581 0.04134 0.29973 0.04134 0.76481v2.6252q0 0.42374-0.19637 0.64078-0.1912 0.21704-0.50126 0.21704-0.31522 0-0.5116-0.2222-0.19637-0.22221-0.19637-0.63562v-2.3513q0-0.69763-0.19637-1.0645-0.1912-0.37207-0.76998-0.37207-0.37724 0-0.68729 0.22737-0.31006 0.22221-0.45475 0.61495-0.10335 0.31523-0.10335 1.1782v1.7673q0 0.42891-0.20154 0.64595-0.19637 0.21187-0.5116 0.21187-0.30489 0-0.50126-0.2222-0.19637-0.22221-0.19637-0.63562v-4.0773q0-0.40307 0.1757-0.59944 0.1757-0.20154 0.48059-0.20154 0.18603 0 0.3359 0.0879 0.14986 0.0879 0.23771 0.26355 0.09302 0.1757 0.09302 0.42891z"/>
			<path d="m6.7652 155v0.17053q0.39791-0.49092 0.82682-0.7183 0.42891-0.23254 0.97151-0.23254 0.65112 0 1.1989 0.3359 0.54777 0.33589 0.86299 0.98184 0.32039 0.64596 0.32039 1.5296 0 0.65112-0.18604 1.1989-0.18087 0.5426-0.50126 0.91467-0.32039 0.3669-0.75964 0.56844-0.43408 0.19637-0.93534 0.19637-0.60461 0-1.018-0.24288-0.40824-0.24288-0.78031-0.71313v2.1187q0 0.93017-0.67696 0.93017-0.39791 0-0.5271-0.24288-0.12919-0.23771-0.12919-0.69763v-6.0875q0-0.40308 0.1757-0.59945 0.1757-0.20154 0.48059-0.20154 0.29972 0 0.48576 0.20671 0.1912 0.20154 0.1912 0.58394zm2.7647 2.0516q0-0.5581-0.17053-0.95601-0.17053-0.40308-0.47542-0.61495-0.29972-0.21704-0.66662-0.21704-0.58394 0-0.98702 0.45992-0.39791 0.45992-0.39791 1.3539 0 0.84232 0.39791 1.3126 0.39791 0.46509 0.98702 0.46509 0.3514 0 0.65112-0.20154 0.29972-0.2067 0.48059-0.61494 0.18087-0.40825 0.18087-0.98702z"/>
			<path d="m15.643 159.15q-0.5116 0.3979-0.99218 0.59944-0.47542 0.19637-1.0697 0.19637-0.5426 0-0.95601-0.21187-0.40824-0.21704-0.63045-0.58394-0.22221-0.36691-0.22221-0.79582 0-0.57877 0.3669-0.98702 0.3669-0.40824 1.0077-0.54776 0.13436-0.031 0.66662-0.13953 0.53227-0.10852 0.9095-0.19637 0.3824-0.093 0.82682-0.22221-0.02584-0.5581-0.22738-0.81648-0.19637-0.26355-0.82165-0.26355-0.53743 0-0.81132 0.14986-0.26872 0.14986-0.46509 0.44958-0.1912 0.29972-0.27388 0.39791-0.07752 0.093-0.34106 0.093-0.23771 0-0.41341-0.14986-0.17053-0.15503-0.17053-0.39274 0-0.37207 0.26355-0.72347t0.82165-0.57878q0.5581-0.22737 1.3901-0.22737 0.93017 0 1.4624 0.22221 0.53227 0.21704 0.74931 0.69246 0.22221 0.47542 0.22221 1.2609 0 0.49609-0.0052 0.84232 0 0.34623-0.0052 0.76998 0 0.39791 0.12919 0.83199 0.13436 0.42891 0.13436 0.55293 0 0.21704-0.2067 0.39791-0.20154 0.1757-0.45992 0.1757-0.21704 0-0.42891-0.20154-0.21187-0.2067-0.44958-0.59427zm-0.09302-2.0412q-0.31006 0.11369-0.90434 0.24288-0.58911 0.12402-0.81648 0.18604-0.22738 0.0568-0.43408 0.23254-0.2067 0.17053-0.2067 0.48059 0 0.32039 0.24288 0.54777 0.24288 0.2222 0.63562 0.2222 0.41858 0 0.76998-0.18086 0.35657-0.18604 0.52193-0.47542 0.1912-0.3204 0.1912-1.0542z"/>
			<path d="m19.767 157.91v1.1782q0 0.42892-0.20154 0.64596-0.20154 0.21187-0.5116 0.21187-0.30489 0-0.50126-0.21704t-0.19637-0.64079v-3.9274q0-0.95085 0.68729-0.95085 0.3514 0 0.50643 0.22221t0.17053 0.65629q0.25321-0.43408 0.51676-0.65629 0.26872-0.22221 0.71313-0.22221t0.86299 0.22221q0.41858 0.22221 0.41858 0.58911 0 0.25838-0.18087 0.42891-0.1757 0.16537-0.3824 0.16537-0.07751 0-0.37724-0.093-0.29456-0.0982-0.52193-0.0982-0.31006 0-0.50643 0.16536-0.19637 0.1602-0.30489 0.48059-0.10852 0.32039-0.14986 0.76481-0.04134 0.43925-0.04134 1.0749z"/>
			<path d="m26.304 159.15q-0.5116 0.3979-0.99218 0.59944-0.47542 0.19637-1.0697 0.19637-0.5426 0-0.95601-0.21187-0.40824-0.21704-0.63045-0.58394-0.22221-0.36691-0.22221-0.79582 0-0.57877 0.3669-0.98702 0.3669-0.40824 1.0077-0.54776 0.13436-0.031 0.66662-0.13953 0.53226-0.10852 0.9095-0.19637 0.3824-0.093 0.82682-0.22221-0.02584-0.5581-0.22738-0.81648-0.19637-0.26355-0.82165-0.26355-0.53743 0-0.81132 0.14986-0.26872 0.14986-0.46509 0.44958-0.1912 0.29972-0.27388 0.39791-0.07751 0.093-0.34106 0.093-0.23771 0-0.41341-0.14986-0.17053-0.15503-0.17053-0.39274 0-0.37207 0.26355-0.72347t0.82165-0.57878q0.5581-0.22737 1.3901-0.22737 0.93017 0 1.4624 0.22221 0.53226 0.21704 0.7493 0.69246 0.22221 0.47542 0.22221 1.2609 0 0.49609-0.0052 0.84232 0 0.34623-0.0052 0.76998 0 0.39791 0.12919 0.83199 0.13436 0.42891 0.13436 0.55293 0 0.21704-0.2067 0.39791-0.20154 0.1757-0.45992 0.1757-0.21704 0-0.42891-0.20154-0.21187-0.2067-0.44958-0.59427zm-0.09302-2.0412q-0.31006 0.11369-0.90433 0.24288-0.58911 0.12402-0.81648 0.18604-0.22738 0.0568-0.43408 0.23254-0.2067 0.17053-0.2067 0.48059 0 0.32039 0.24288 0.54777 0.24288 0.2222 0.63562 0.2222 0.41858 0 0.76998-0.18086 0.35657-0.18604 0.52193-0.47542 0.1912-0.3204 0.1912-1.0542z"/>
			<path d="m33.72 157.19v1.8758q0 0.44441-0.20154 0.66662-0.20154 0.22221-0.53226 0.22221-0.32039 0-0.52193-0.22221-0.19637-0.22221-0.19637-0.66662v-2.2479q0-0.53227-0.03617-0.82682t-0.19637-0.48059q-0.1602-0.1912-0.50643-0.1912-0.69246 0-0.91467 0.47542-0.21704 0.47542-0.21704 1.3642v1.9069q0 0.43925-0.20154 0.66662-0.19637 0.22221-0.52193 0.22221-0.32039 0-0.5271-0.22221-0.20154-0.22737-0.20154-0.66662v-4.0359q0-0.39791 0.18087-0.60461 0.18603-0.20671 0.48576-0.20671 0.28939 0 0.48059 0.19637 0.19637 0.19121 0.19637 0.53227v0.13436q0.3669-0.43925 0.78548-0.64596 0.41858-0.2067 0.93017-0.2067 0.53226 0 0.91467 0.21187 0.3824 0.21187 0.63045 0.64079 0.35657-0.43408 0.76481-0.64079 0.40824-0.21187 0.90433-0.21187 0.57878 0 0.99735 0.22737 0.41858 0.22738 0.62528 0.65113 0.18087 0.3824 0.18087 1.204v2.7544q0 0.44441-0.20154 0.66662-0.20154 0.22221-0.53227 0.22221-0.32039 0-0.5271-0.22221-0.20154-0.22737-0.20154-0.66662v-2.3719q0-0.45475-0.04134-0.72864-0.03617-0.27388-0.2067-0.45992-0.17053-0.18603-0.51676-0.18603-0.27905 0-0.53226 0.16536-0.24805 0.16537-0.38757 0.44442-0.15503 0.35656-0.15503 1.2609z"/>
			<path d="m42.933 158.11q0 0.58394-0.28422 1.0025-0.28422 0.41341-0.84232 0.63045-0.55294 0.21187-1.3488 0.21187-0.75964 0-1.3022-0.23254-0.5426-0.23255-0.80098-0.57878-0.25838-0.3514-0.25838-0.70279 0-0.23255 0.16536-0.39791 0.16536-0.16537 0.41858-0.16537 0.22221 0 0.34106 0.10852t0.22738 0.30489q0.21704 0.37724 0.51676 0.56328 0.30489 0.18603 0.82682 0.18603 0.42374 0 0.69246-0.18603 0.27388-0.19121 0.27388-0.43409 0-0.37206-0.28422-0.5426-0.27905-0.17053-0.925-0.32556-0.72864-0.18086-1.1886-0.37723-0.45475-0.20154-0.72864-0.5271-0.27388-0.32556-0.27388-0.80098 0-0.42375 0.25321-0.80099 0.25321-0.37723 0.74414-0.59944 0.49609-0.22738 1.1937-0.22738 0.54777 0 0.98185 0.11369 0.43925 0.11369 0.72864 0.30489 0.29455 0.1912 0.44442 0.42375 0.15503 0.23254 0.15503 0.45475 0 0.24288-0.16536 0.39791-0.1602 0.15502-0.45992 0.15502-0.21704 0-0.37207-0.12402-0.14986-0.12402-0.34623-0.37207-0.1602-0.2067-0.37724-0.33073-0.21704-0.12402-0.58911-0.12402-0.3824 0-0.63562 0.16537-0.25321 0.16019-0.25321 0.40307 0 0.22221 0.18604 0.3669 0.18603 0.13953 0.50126 0.23254 0.31522 0.093 0.86816 0.22738 0.65629 0.1602 1.0697 0.3824 0.41858 0.22221 0.63045 0.5271 0.21704 0.29973 0.21704 0.6873z"/>
		</g>
		<g stroke-width=".26458" aria-label='print("hello world")'>
			<g fill="#fad000">
				<path d="m-36.529 111v1.0054h0.08467q0.13758-0.52916 0.56092-0.81491 0.42333-0.29633 1.0689-0.29633 0.4445 0 0.80433 0.15874 0.35983 0.15875 0.61383 0.45509 0.254 0.28575 0.39158 0.70908 0.14817 0.42333 0.14817 0.95249v1.4817q0 0.52916-0.14817 0.95249-0.13758 0.42334-0.39158 0.71967-0.254 0.28575-0.61383 0.4445t-0.80433 0.15875q-0.64558 0-1.0689-0.28575-0.42333-0.29634-0.56092-0.8255h-0.08467q0.01058 0.17992 0.03175 0.35983 0.01058 0.15875 0.01058 0.32808 0.01058 0.16934 0.01058 0.3175v1.7462h-0.9525v-7.5671zm0.05292 3.6512q0 0.66674 0.34925 1.0583 0.35983 0.39158 0.9525 0.39158 0.635 0 0.99483-0.39158 0.37042-0.39159 0.37042-1.0583v-1.4817q0-0.68791-0.35983-1.0689t-1.0054-0.381q-0.59266 0-0.9525 0.39158-0.34925 0.39159-0.34925 1.0583z"/>
				<path d="m-30.825 111h0.89958v1.0054h0.08467q0.13758-0.51858 0.5715-0.81491 0.43392-0.29633 1.0689-0.29633 0.92075 0 1.4393 0.58208 0.52916 0.57149 0.52916 1.5769v0.32808h-0.9525v-0.21167q0-0.68791-0.34925-1.0583-0.33867-0.38099-0.97366-0.38099-0.62442 0-0.99483 0.39158-0.37042 0.381-0.37042 1.0477v3.6512h-0.9525z"/>
				<path d="m-24.655 116.82v-0.86783h2.1167v-4.0852h-1.8521v-0.86783h2.8046v4.953h1.7462v0.86783zm2.3283-8.0962h0.21167q0.30692 0 0.49742 0.17991 0.1905 0.17992 0.1905 0.46567t-0.1905 0.45508-0.49742 0.16933h-0.21167q-0.30692 0-0.49742-0.15874-0.1905-0.16934-0.1905-0.46567 0-0.28575 0.1905-0.46567 0.1905-0.17991 0.49742-0.17991z"/>
				<path d="m-18.379 116.82v-5.8208h0.89958v1.0054h0.08467q0.13758-0.52916 0.55033-0.81491 0.42333-0.29633 1.0477-0.29633 0.43392 0 0.78316 0.14816 0.35983 0.14817 0.60325 0.42333 0.254 0.26459 0.39158 0.64558 0.13758 0.37042 0.13758 0.83609v3.8735h-0.9525v-3.7147q0-0.66674-0.33866-1.0372-0.33867-0.37041-0.94191-0.37041t-0.96308 0.40216q-0.34925 0.39158-0.34925 1.0689v3.6512z"/>
				<path d="m-12.325 111h1.6933v-1.7992h0.9525v1.7992h2.2754v0.86783h-2.2754v3.4502q0 0.29634 0.17992 0.46567 0.1905 0.16933 0.508 0.16933h1.4817v0.86783h-1.4817q-0.75141 0-1.1959-0.41275-0.4445-0.41274-0.4445-1.0901v-3.4502h-1.6933z"/>
				<path d="m-4.3902 111.36q0-0.876 0.252-1.632 0.252-0.768 0.72-1.368 0.468-0.612 1.128-1.044 0.672-0.432 1.5-0.636v1.02q-0.576 0.132-1.044 0.456t-0.792 0.804-0.504 1.092q-0.18 0.6-0.18 1.308v2.28q0 0.696 0.168 1.296 0.18 0.6 0.504 1.068 0.336 0.468 0.804 0.792t1.044 0.456v1.068q-0.852-0.216-1.524-0.636-0.66-0.42-1.128-1.02-0.456-0.6-0.708-1.356-0.24-0.768-0.24-1.668z" stop-color="#000000" stroke-width=".070004"/>
			</g>
			<g fill="#a5ff90">
				<path d="m4.3258 109.1h1.0266v1.5875l-0.11642 1.5875h-0.78316l-0.127-1.5875zm-2.1484 1.5875v-1.5875h1.0266v1.5875l-0.11642 1.5875h-0.78316z"/>
				<path d="m7.8712 109.1h0.9525v1.905q0 0.14816-0.010583 0.32808 0 0.16933-0.010583 0.3175-0.021167 0.17992-0.03175 0.35983h0.084666q0.13758-0.52916 0.55033-0.81491 0.42333-0.29633 1.0477-0.29633 0.43392 0 0.78316 0.14816 0.35983 0.14817 0.60325 0.42333 0.254 0.26459 0.39158 0.64558 0.13758 0.37042 0.13758 0.83609v3.8735h-0.9525v-3.7147q0-0.66674-0.33867-1.0372-0.33867-0.37041-0.94191-0.37041-0.60325 0-0.96308 0.40216-0.34925 0.39158-0.34925 1.0689v3.6512h-0.9525z"/>
				<path d="m16.465 116.93q-1.0901 0-1.7145-0.59267-0.61383-0.59266-0.61383-1.6298v-1.5875q0-1.0372 0.61383-1.6298 0.62442-0.59266 1.7145-0.59266t1.7039 0.59266q0.62442 0.59266 0.62442 1.6298v1.0689h-3.7042v0.46567q0 0.66674 0.35983 1.0477 0.37042 0.381 1.016 0.381 0.47625 0 0.8255-0.14816 0.34925-0.14817 0.51858-0.43392h0.9525q-0.17992 0.66675-0.80433 1.0478-0.61383 0.381-1.4922 0.381zm1.3758-3.5348v-0.27516q0-0.65617-0.35983-1.016-0.35983-0.35983-1.016-0.35983-0.65616 0-1.016 0.35983t-0.35983 1.016v0.27516z"/>
				<path d="m22.942 109.1v6.0325q0 0.39158 0.21167 0.61383 0.21167 0.21166 0.58208 0.21166h1.7251v0.86783h-1.7251q-0.81491 0-1.2806-0.4445-0.46566-0.45508-0.46566-1.2488v-5.1647h-1.9262v-0.86783z"/>
				<path d="m29.292 109.1v6.0325q0 0.39158 0.21167 0.61383 0.21167 0.21166 0.58208 0.21166h1.7251v0.86783h-1.7251q-0.81491 0-1.2806-0.4445-0.46566-0.45508-0.46566-1.2488v-5.1647h-1.9262v-0.86783z"/>
				<path d="m34.139 114.65q0 0.66674 0.35983 1.0477 0.37042 0.381 1.016 0.381 0.635 0 1.0054-0.381 0.37042-0.381 0.37042-1.0477v-1.4817q0-0.66674-0.37042-1.0477-0.37042-0.381-1.0054-0.381t-1.0054 0.381q-0.37042 0.381-0.37042 1.0477zm-0.9525-1.4817q0-0.52916 0.15875-0.94191 0.16933-0.42333 0.46566-0.71966 0.30692-0.29634 0.73025-0.45509 0.43392-0.15874 0.97366-0.15874 1.0795 0 1.7039 0.60324 0.62441 0.60325 0.62441 1.6616v1.4922q0 0.52916-0.15875 0.95249-0.15875 0.42334-0.46566 0.71967-0.29633 0.28575-0.73025 0.4445t-0.97366 0.15875q-0.53975 0-0.97366-0.15875-0.42333-0.15875-0.73025-0.45509-0.29633-0.29633-0.46566-0.71966-0.15875-0.42333-0.15875-0.94191z"/>
				<path d="m45.357 111h0.79375l0.508 3.9899q0.02117 0.15875 0.04233 0.381 0.02117 0.22225 0.04233 0.43392 0.03175 0.254 0.05292 0.50799h0.10583q0.03175-0.26458 0.0635-0.50799 0.03175-0.21167 0.0635-0.43392 0.03175-0.23283 0.05292-0.381l0.60325-3.9899h1.0477l0.59266 3.9899q0.02117 0.15875 0.05292 0.39158 0.03175 0.22225 0.0635 0.43392 0.03175 0.24342 0.0635 0.49741h0.11642q0.03175-0.25399 0.0635-0.50799 0.02117-0.21167 0.04233-0.43392 0.03175-0.22225 0.05292-0.381l0.51858-3.9899h0.77258l-0.8255 5.8208h-1.2912l-0.61383-4.1169q-0.02117-0.17992-0.04233-0.37042-0.01058-0.20108-0.02117-0.37041-0.01058-0.1905-0.01058-0.381h-0.10583q-0.01058 0.1905-0.02117 0.381-0.01058 0.16933-0.03175 0.37041-0.01058 0.1905-0.04233 0.37042l-0.635 4.1169h-1.2594z"/>
				<path d="m53.189 114.65q0 0.66674 0.35983 1.0477 0.37042 0.381 1.016 0.381 0.635 0 1.0054-0.381 0.37042-0.381 0.37042-1.0477v-1.4817q0-0.66674-0.37042-1.0477-0.37042-0.381-1.0054-0.381t-1.0054 0.381q-0.37042 0.381-0.37042 1.0477zm-0.9525-1.4817q0-0.52916 0.15875-0.94191 0.16933-0.42333 0.46566-0.71966 0.30692-0.29634 0.73025-0.45509 0.43392-0.15874 0.97366-0.15874 1.0795 0 1.7039 0.60324 0.62442 0.60325 0.62442 1.6616v1.4922q0 0.52916-0.15875 0.95249-0.15875 0.42334-0.46566 0.71967-0.29633 0.28575-0.73025 0.4445-0.43392 0.15875-0.97366 0.15875t-0.97366-0.15875q-0.42333-0.15875-0.73025-0.45509-0.29633-0.29633-0.46566-0.71966-0.15875-0.42333-0.15875-0.94191z"/>
				<path d="m58.925 111h0.89958v1.0054h0.08467q0.13758-0.51858 0.5715-0.81491t1.0689-0.29633q0.92075 0 1.4393 0.58208 0.52916 0.57149 0.52916 1.5769v0.32808h-0.9525v-0.21167q0-0.68791-0.34925-1.0583-0.33867-0.38099-0.97366-0.38099-0.62441 0-0.99483 0.39158-0.37042 0.381-0.37042 1.0477v3.6512h-0.9525z"/>
				<path d="m67.392 109.1v6.0325q0 0.39158 0.21167 0.61383 0.21167 0.21166 0.58208 0.21166h1.7251v0.86783h-1.7251q-0.81491 0-1.2806-0.4445-0.46566-0.45508-0.46566-1.2488v-5.1647h-1.9262v-0.86783z"/>
				<path d="m71.286 113.17q0-0.52916 0.13758-0.95249 0.14817-0.42333 0.40216-0.70908 0.254-0.29634 0.61383-0.45509 0.35983-0.15874 0.80433-0.15874 0.64558 0 1.0689 0.29633 0.42333 0.28575 0.56092 0.81491h0.08467q-0.01058-0.17991-0.02117-0.35983-0.02117-0.15875-0.03175-0.32808 0-0.17992 0-0.3175v-1.905h0.9525v7.7258h-0.89958v-1.0054h-0.08467q-0.13758 0.52916-0.56092 0.8255-0.42333 0.28575-1.0689 0.28575-0.4445 0-0.80433-0.15875-0.35983-0.15875-0.61383-0.4445-0.254-0.29633-0.40216-0.71967-0.13758-0.42333-0.13758-0.95249zm2.3177 2.9316q0.59266 0 0.94191-0.39158 0.35983-0.39159 0.35983-1.0583v-1.4817q0-0.66674-0.35983-1.0583-0.34925-0.39158-0.94191-0.39158-0.64558 0-1.0054 0.381t-0.35983 1.0689v1.4817q0 0.66674 0.35983 1.0583 0.37042 0.39158 1.0054 0.39158z"/>
				<path d="m80.526 109.1h1.0266v1.5875l-0.11642 1.5875h-0.78316l-0.127-1.5875zm-2.1484 1.5875v-1.5875h1.0266v1.5875l-0.11642 1.5875h-0.78316z"/>
			</g>
			<path d="m84.52 117.26q0.576-0.132 1.044-0.456t0.792-0.792q0.336-0.468 0.504-1.068 0.18-0.6 0.18-1.296v-2.28q0-0.708-0.18-1.308-0.18-0.612-0.504-1.092t-0.792-0.804-1.044-0.456v-1.02q0.828 0.204 1.488 0.636 0.672 0.432 1.14 1.044 0.468 0.6 0.72 1.368 0.252 0.756 0.252 1.632v2.28q0 0.9-0.252 1.668-0.24 0.756-0.708 1.356-0.456 0.6-1.128 1.02-0.66 0.42-1.512 0.636z" fill="#fad000" stop-color="#000000" stroke-width=".070004"/>
		</g>
		<g fill="none" stroke="#f0f" stroke-linecap="round">
			<g id="b" transform="matrix(0 -.9997 1.0783 0 -122.93 73.031)" stroke-dasharray="1.09606, 2.19211" stroke-width="1.0961">
				<path d="m-47.56 79.186c-0.67228 0.01319-0.81266 0.13349-1.3192 0.5693-2.4069 2.0708 0.05918 7.5364 0.27722 10.142 0.09483 1.1332-0.31101 2.2159-1.1397 2.9814-0.28773 0.2658-0.85666 0.61157-1.1859 0.61157"/>
				<path d="m-47.56 107.79c-0.67228-0.0132-0.81266-0.13349-1.3192-0.5693-2.4069-2.0708 0.05918-7.5364 0.27722-10.142 0.09483-1.1332-0.31101-2.2159-1.1397-2.9814-0.28773-0.2658-0.85666-0.61157-1.1859-0.61157"/>
			</g>
			<g transform="matrix(0 -1.6086 2.8083 0 -220.66 44.899)" stroke-dasharray="0.623409, 1.24682" stroke-dashoffset="1.1221" stroke-width=".62341">
				<path d="m-47.56 79.186c-0.67228 0.01319-0.81266 0.13349-1.3192 0.5693-2.4069 2.0708 0.05918 7.5364 0.27722 10.142 0.09483 1.1332-0.31101 2.2159-1.1397 2.9814-0.28773 0.2658-0.85666 0.61157-1.1859 0.61157"/>
				<path d="m-47.56 107.79c-0.67228-0.0132-0.81266-0.13349-1.3192-0.5693-2.4069-2.0708 0.05918-7.5364 0.27722-10.142 0.09483-1.1332-0.31101-2.2159-1.1397-2.9814-0.28773-0.2658-0.85666-0.61157-1.1859-0.61157"/>
			</g>
			<g transform="matrix(0 1.6088 3.1645 0 -253.54 180.73)" stroke-dasharray="0.600973, 1.20195" stroke-linejoin="round" stroke-width=".60097">
				<path d="m-47.56 79.186c-0.67228 0.01319-0.81266 0.13349-1.3192 0.5693-2.4069 2.0708 0.05918 7.5364 0.27722 10.142 0.09483 1.1332-0.31101 2.2159-1.1397 2.9814-0.28773 0.2658-0.85666 0.61157-1.1859 0.61157"/>
				<path d="m-47.56 107.79c-0.67228-0.0132-0.81266-0.13349-1.3192-0.5693-2.4069-2.0708 0.05918-7.5364 0.27722-10.142 0.09483-1.1332-0.31101-2.2159-1.1397-2.9814-0.28773-0.2658-0.85666-0.61157-1.1859-0.61157"/>
			</g>
		</g>
		<g transform="matrix(.59416 0 0 .59416 -30.286 53.15)" fill="#f0f" stroke-width=".26458" style="inline-size:52.5191;white-space:pre" aria-label="function name">
			<path d="m-6.5888 127.88h0.3359v-0.42375q0-0.66145 0.16536-1.049 0.17053-0.39274 0.56844-0.56844 0.40307-0.18087 1.1007-0.18087 1.2351 0 1.2351 0.60461 0 0.19637-0.12919 0.3359-0.12919 0.13952-0.30489 0.13952-0.082682 0-0.28422-0.031t-0.34106-0.031q-0.3824 0-0.49092 0.22738-0.10852 0.22221-0.10852 0.64078v0.3359h0.34623q0.80615 0 0.80615 0.48576 0 0.34623-0.21704 0.43924-0.21187 0.093-0.58911 0.093h-0.34623v3.7362q0 0.41857-0.20154 0.64078-0.19637 0.21704-0.5116 0.21704-0.29972 0-0.50126-0.21704-0.19637-0.22221-0.19637-0.64078v-3.7362h-0.38757q-0.31523 0-0.48576-0.13952-0.17053-0.1447-0.17053-0.37207 0-0.50643 0.70796-0.50643z"/>
			<path d="m0.71307 132.7v-0.18087q-0.25321 0.32039-0.53227 0.53743t-0.60978 0.3204q-0.33073 0.10852-0.75447 0.10852-0.5116 0-0.91984-0.21188-0.40307-0.21187-0.62528-0.58394-0.26355-0.44958-0.26355-1.2919v-2.7957q0-0.42375 0.1912-0.63045 0.1912-0.21187 0.50643-0.21187 0.32039 0 0.51676 0.21187t0.19637 0.63045v2.2582q0 0.49093 0.082682 0.82682 0.082682 0.33073 0.29455 0.52193 0.21704 0.18604 0.58394 0.18604 0.35657 0 0.67179-0.21188 0.31523-0.21187 0.45992-0.55293 0.11886-0.29972 0.11886-1.3126v-1.7156q0-0.41858 0.19637-0.63045t0.5116-0.21187q0.31523 0 0.50643 0.21187 0.1912 0.2067 0.1912 0.63045v4.0876q0 0.40308-0.18603 0.60461-0.18087 0.20154-0.47025 0.20154t-0.48059-0.2067q-0.18603-0.21188-0.18603-0.58911z"/>
			<path d="m4.7232 128.54v0.17053q0.37207-0.49093 0.81132-0.7183 0.44442-0.23254 1.018-0.23254 0.5581 0 0.99735 0.24287 0.43925 0.24288 0.65629 0.6873 0.13953 0.25838 0.18087 0.5581t0.041341 0.76481v2.6252q0 0.42374-0.19637 0.64078-0.1912 0.21704-0.50126 0.21704-0.31523 0-0.5116-0.22221-0.19637-0.2222-0.19637-0.63561v-2.3513q0-0.69763-0.19637-1.0645-0.1912-0.37206-0.76998-0.37206-0.37724 0-0.68729 0.22737-0.31006 0.22221-0.45475 0.61495-0.10335 0.31522-0.10335 1.1782v1.7673q0 0.42891-0.20154 0.64595-0.19637 0.21187-0.5116 0.21187-0.30489 0-0.50126-0.22221-0.19637-0.2222-0.19637-0.63561v-4.0773q0-0.40308 0.1757-0.59945 0.1757-0.20153 0.48059-0.20153 0.18603 0 0.3359 0.0879 0.14986 0.0879 0.23771 0.26354 0.093017 0.1757 0.093017 0.42892z"/>
			<path d="m14.893 131.75q0 0.26355-0.1602 0.56327-0.15503 0.29973-0.48059 0.57361-0.32039 0.26872-0.81132 0.43408-0.49092 0.16537-1.1059 0.16537-1.3074 0-2.0412-0.75964-0.7338-0.76481-0.7338-2.0464 0-0.86816 0.3359-1.5348 0.3359-0.66662 0.97151-1.0284 0.63562-0.3669 1.5193-0.3669 0.54777 0 1.0025 0.1602 0.45992 0.16019 0.77514 0.41341 0.32039 0.25321 0.48576 0.5426 0.17053 0.28422 0.17053 0.53226 0 0.25322-0.1912 0.42892-0.18604 0.1757-0.45475 0.1757-0.1757 0-0.29456-0.0879-0.11369-0.093-0.25838-0.29456-0.25838-0.39274-0.5426-0.58911-0.27905-0.19637-0.71313-0.19637-0.62528 0-1.0077 0.49093-0.3824 0.48575-0.3824 1.3332 0 0.39791 0.09818 0.73381 0.09819 0.33073 0.28422 0.56844 0.18604 0.23254 0.44958 0.35656 0.26355 0.11886 0.57877 0.11886 0.42374 0 0.72347-0.19637 0.30489-0.19637 0.53743-0.59945 0.12919-0.23771 0.27905-0.37207 0.14986-0.13435 0.3669-0.13435 0.25838 0 0.42891 0.19637 0.17053 0.19637 0.17053 0.41857z"/>
			<path d="m16.2 127.88h0.15503v-0.84749q0-0.34107 0.0155-0.53227 0.02067-0.19637 0.10335-0.33589 0.08268-0.1447 0.23771-0.23255 0.15503-0.093 0.34623-0.093 0.26872 0 0.48576 0.20153 0.14469 0.13436 0.18087 0.33073 0.04134 0.1912 0.04134 0.54777v0.96118h0.51676q0.29972 0 0.45475 0.14469 0.1602 0.13953 0.1602 0.36174 0 0.28422-0.22738 0.3979-0.22221 0.11369-0.64079 0.11369h-0.26355v2.5942q0 0.33073 0.02067 0.51159 0.02584 0.1757 0.12402 0.28939 0.10335 0.10852 0.33073 0.10852 0.12402 0 0.3359-0.0413 0.21187-0.0465 0.33073-0.0465 0.17053 0 0.30489 0.13953 0.13953 0.13436 0.13953 0.33589 0 0.34107-0.37207 0.52193-0.37207 0.18087-1.0697 0.18087-0.66146 0-1.0025-0.22221-0.34106-0.2222-0.44958-0.61494-0.10335-0.39274-0.10335-1.049v-2.7078h-0.18604q-0.30489 0-0.46509-0.14469-0.1602-0.1447-0.1602-0.3669 0-0.22221 0.16536-0.36174 0.17053-0.14469 0.49092-0.14469z"/>
			<path d="m21.28 128.56v4.0773q0 0.42374-0.20154 0.64078t-0.5116 0.21704-0.50643-0.22221q-0.1912-0.2222-0.1912-0.63561v-4.0359q0-0.41858 0.1912-0.63045 0.19637-0.21187 0.50643-0.21187t0.5116 0.21187 0.20154 0.58911zm-0.69763-1.4573q-0.29456 0-0.50643-0.18087-0.2067-0.18087-0.2067-0.51159 0-0.29973 0.21187-0.49093 0.21704-0.19637 0.50126-0.19637 0.27388 0 0.48576 0.1757 0.21187 0.1757 0.21187 0.5116 0 0.32556-0.2067 0.51159-0.2067 0.18087-0.49092 0.18087z"/>
			<path d="m28.019 130.62q0 0.63045-0.19637 1.1627-0.19637 0.53227-0.56844 0.91467-0.37207 0.38241-0.88883 0.58911-0.51676 0.20154-1.1627 0.20154-0.64079 0-1.1524-0.2067-0.5116-0.20671-0.88883-0.58911-0.37207-0.38758-0.56844-0.90951-0.1912-0.52709-0.1912-1.1627 0-0.64079 0.19637-1.173 0.19637-0.53227 0.56327-0.9095 0.3669-0.37724 0.88883-0.57878 0.52193-0.2067 1.1524-0.2067 0.64079 0 1.1627 0.2067 0.52193 0.20671 0.894 0.58911t0.56327 0.9095q0.19637 0.5271 0.19637 1.1627zm-1.4159 0q0-0.863-0.3824-1.3436-0.37724-0.48059-1.018-0.48059-0.41341 0-0.72864 0.21704-0.31522 0.21187-0.48576 0.63045-0.17053 0.41857-0.17053 0.97668 0 0.55293 0.16536 0.96634 0.17053 0.41341 0.48059 0.63562 0.31522 0.21704 0.73897 0.21704 0.64079 0 1.018-0.48059 0.3824-0.48575 0.3824-1.3384z"/>
			<path d="m30.411 128.54v0.17053q0.37207-0.49093 0.81132-0.7183 0.44442-0.23254 1.018-0.23254 0.5581 0 0.99735 0.24287 0.43925 0.24288 0.65629 0.6873 0.13953 0.25838 0.18087 0.5581 0.04134 0.29972 0.04134 0.76481v2.6252q0 0.42374-0.19637 0.64078-0.1912 0.21704-0.50126 0.21704-0.31522 0-0.5116-0.22221-0.19637-0.2222-0.19637-0.63561v-2.3513q0-0.69763-0.19637-1.0645-0.1912-0.37206-0.76998-0.37206-0.37724 0-0.68729 0.22737-0.31006 0.22221-0.45475 0.61495-0.10335 0.31522-0.10335 1.1782v1.7673q0 0.42891-0.20154 0.64595-0.19637 0.21187-0.5116 0.21187-0.30489 0-0.50126-0.22221-0.19637-0.2222-0.19637-0.63561v-4.0773q0-0.40308 0.1757-0.59945 0.1757-0.20153 0.48059-0.20153 0.18604 0 0.3359 0.0879t0.23771 0.26354q0.09302 0.1757 0.09302 0.42892z"/>
			<path d="m1.6381 141.77v0.17053q0.37207-0.49092 0.81132-0.7183 0.44442-0.23254 1.018-0.23254 0.5581 0 0.99735 0.24288 0.43925 0.24288 0.65629 0.68729 0.13953 0.25838 0.18087 0.5581 0.041341 0.29973 0.041341 0.76481v2.6252q0 0.42374-0.19637 0.64078-0.1912 0.21704-0.50126 0.21704-0.31523 0-0.5116-0.2222-0.19637-0.22221-0.19637-0.63562v-2.3513q0-0.69763-0.19637-1.0645-0.1912-0.37207-0.76998-0.37207-0.37724 0-0.68729 0.22737-0.31006 0.22221-0.45475 0.61495-0.10335 0.31523-0.10335 1.1782v1.7673q0 0.42891-0.20154 0.64595-0.19637 0.21187-0.5116 0.21187-0.30489 0-0.50126-0.2222-0.19637-0.22221-0.19637-0.63562v-4.0773q0-0.40307 0.1757-0.59944 0.1757-0.20154 0.48059-0.20154 0.18603 0 0.3359 0.0879 0.14986 0.0879 0.23771 0.26355 0.093017 0.1757 0.093017 0.42891z"/>
			<path d="m10.315 145.93q-0.51159 0.39791-0.99218 0.59944-0.47542 0.19637-1.0697 0.19637-0.5426 0-0.95601-0.21187-0.40824-0.21704-0.63045-0.58394-0.22221-0.3669-0.22221-0.79582 0-0.57877 0.3669-0.98701t1.0077-0.54777q0.13436-0.031 0.66662-0.13953 0.53227-0.10852 0.9095-0.19637 0.3824-0.093 0.82682-0.2222-0.02584-0.55811-0.22738-0.81649-0.19637-0.26355-0.82165-0.26355-0.53743 0-0.81132 0.14986-0.26872 0.14986-0.46509 0.44959-0.1912 0.29972-0.27388 0.3979-0.077514 0.093-0.34106 0.093-0.23771 0-0.41341-0.14986-0.17053-0.15503-0.17053-0.39274 0-0.37207 0.26355-0.72347 0.26355-0.3514 0.82165-0.57877 0.5581-0.22738 1.3901-0.22738 0.93017 0 1.4624 0.22221 0.53227 0.21704 0.74931 0.69246 0.22221 0.47542 0.22221 1.2609 0 0.4961-0.0052 0.84233 0 0.34623-0.0052 0.76997 0 0.39791 0.12919 0.83199 0.13436 0.42891 0.13436 0.55294 0 0.21704-0.2067 0.3979-0.20154 0.1757-0.45992 0.1757-0.21704 0-0.42891-0.20153-0.21187-0.20671-0.44958-0.59428zm-0.09302-2.0412q-0.31006 0.11368-0.90433 0.24288-0.58911 0.12402-0.81648 0.18603-0.22738 0.0568-0.43408 0.23254-0.20671 0.17053-0.20671 0.48059 0 0.3204 0.24288 0.54777 0.24288 0.22221 0.63562 0.22221 0.41858 0 0.76998-0.18087 0.35657-0.18603 0.52193-0.47542 0.1912-0.32039 0.1912-1.0542z"/>
			<path d="m17.73 143.96v1.8758q0 0.44442-0.20154 0.66663-0.20154 0.2222-0.53227 0.2222-0.32039 0-0.52193-0.2222-0.19637-0.22221-0.19637-0.66663v-2.2479q0-0.53226-0.03617-0.82682-0.03617-0.29455-0.19637-0.48059-0.1602-0.1912-0.50643-0.1912-0.69246 0-0.91467 0.47542-0.21704 0.47543-0.21704 1.3643v1.9068q0 0.43925-0.20154 0.66663-0.19637 0.2222-0.52193 0.2222-0.32039 0-0.5271-0.2222-0.20154-0.22738-0.20154-0.66663v-4.0359q0-0.39791 0.18087-0.60462 0.18603-0.2067 0.48576-0.2067 0.28939 0 0.48059 0.19637 0.19637 0.1912 0.19637 0.53226v0.13436q0.3669-0.43925 0.78548-0.64595 0.41858-0.20671 0.93017-0.20671 0.53226 0 0.91467 0.21188 0.3824 0.21187 0.63045 0.64078 0.35657-0.43408 0.76481-0.64078 0.40824-0.21188 0.90434-0.21188 0.57877 0 0.99735 0.22738 0.41858 0.22737 0.62528 0.65112 0.18087 0.3824 0.18087 1.2041v2.7543q0 0.44442-0.20154 0.66663-0.20154 0.2222-0.53227 0.2222-0.32039 0-0.5271-0.2222-0.20154-0.22738-0.20154-0.66663v-2.3719q0-0.45475-0.04134-0.72863-0.03617-0.27389-0.2067-0.45992-0.17053-0.18604-0.51676-0.18604-0.27905 0-0.53226 0.16537-0.24805 0.16536-0.38757 0.44441-0.15503 0.35657-0.15503 1.2609z"/>
			<path d="m26.339 144.2h-2.7595q0.0052 0.48059 0.1912 0.84749 0.1912 0.3669 0.50126 0.55294 0.31522 0.18603 0.69246 0.18603 0.25321 0 0.45992-0.0568 0.21187-0.062 0.40824-0.18604 0.19637-0.12919 0.36173-0.27388t0.42891-0.39274q0.10852-0.093 0.31006-0.093 0.21704 0 0.3514 0.11886 0.13436 0.11885 0.13436 0.33589 0 0.19121-0.14986 0.44959-0.14986 0.25321-0.45475 0.49092-0.29972 0.23255-0.75964 0.38758-0.45475 0.15502-1.049 0.15502-1.3591 0-2.1136-0.77514-0.75447-0.77514-0.75447-2.1032 0-0.62529 0.18603-1.1576 0.18604-0.53744 0.5426-0.91984t0.8785-0.58394q0.52193-0.20671 1.1575-0.20671 0.82682 0 1.4159 0.3514 0.59428 0.34623 0.88883 0.89917 0.29455 0.55293 0.29455 1.1265 0 0.53227-0.30489 0.69246-0.30489 0.15503-0.85783 0.15503zm-2.7595-0.80098h2.558q-0.05168-0.72347-0.39274-1.08-0.3359-0.36174-0.88883-0.36174-0.5271 0-0.86816 0.3669-0.3359 0.36174-0.40824 1.0749z"/>
		</g>
		<g transform="matrix(.59416 0 0 .59416 27.465 53.15)" fill="#f0f" stroke-width=".26458" style="inline-size:73.0615;white-space:pre" aria-label="parameters separated by commas">
			<path d="m-3.583 128.55v0.17053q0.39791-0.49092 0.82682-0.7183 0.42891-0.23254 0.97151-0.23254 0.65112 0 1.1989 0.3359 0.54777 0.33589 0.86299 0.98185 0.32039 0.64595 0.32039 1.5296 0 0.65112-0.18603 1.1989-0.18087 0.5426-0.50126 0.91467-0.32039 0.3669-0.75964 0.56844-0.43408 0.19637-0.93534 0.19637-0.60461 0-1.018-0.24288-0.40824-0.24288-0.78031-0.71313v2.1187q0 0.93017-0.67696 0.93017-0.39791 0-0.5271-0.24288-0.12919-0.23771-0.12919-0.69763v-6.0875q0-0.40308 0.1757-0.59945 0.1757-0.20153 0.48059-0.20153 0.29972 0 0.48576 0.2067 0.1912 0.20154 0.1912 0.58394zm2.7647 2.0516q0-0.5581-0.17053-0.95601-0.17053-0.40308-0.47542-0.61495-0.29972-0.21704-0.66662-0.21704-0.58394 0-0.98702 0.45992-0.39791 0.45992-0.39791 1.3539 0 0.84232 0.39791 1.3126 0.39791 0.46508 0.98702 0.46508 0.3514 0 0.65112-0.20154 0.29972-0.2067 0.48059-0.61494 0.18087-0.40825 0.18087-0.98702z"/>
			<path d="m5.295 132.7q-0.5116 0.3979-0.99218 0.59944-0.47542 0.19637-1.0697 0.19637-0.5426 0-0.95601-0.21187-0.40824-0.21704-0.63045-0.58394-0.22221-0.3669-0.22221-0.79582 0-0.57877 0.3669-0.98701 0.3669-0.40825 1.0077-0.54777 0.13436-0.031 0.66662-0.13953 0.53227-0.10852 0.9095-0.19637 0.3824-0.093 0.82682-0.22221-0.025838-0.5581-0.22738-0.81648-0.19637-0.26355-0.82165-0.26355-0.53743 0-0.81132 0.14986-0.26872 0.14986-0.46509 0.44958-0.1912 0.29973-0.27388 0.39791-0.077514 0.093-0.34106 0.093-0.23771 0-0.41341-0.14986-0.17053-0.15503-0.17053-0.39274 0-0.37207 0.26355-0.72347 0.26355-0.3514 0.82165-0.57877 0.5581-0.22738 1.3901-0.22738 0.93017 0 1.4624 0.22221 0.53227 0.21704 0.74931 0.69246 0.22221 0.47542 0.22221 1.2609 0 0.49609-0.00517 0.84232 0 0.34624-0.00517 0.76998 0 0.39791 0.12919 0.83199 0.13436 0.42891 0.13436 0.55293 0 0.21705-0.20671 0.39791-0.20154 0.1757-0.45992 0.1757-0.21704 0-0.42891-0.20154-0.21187-0.2067-0.44958-0.59427zm-0.093017-2.0412q-0.31006 0.11369-0.90433 0.24288-0.58911 0.12403-0.81648 0.18604-0.22738 0.0568-0.43408 0.23254-0.20671 0.17053-0.20671 0.48059 0 0.32039 0.24288 0.54777 0.24288 0.22221 0.63562 0.22221 0.41858 0 0.76998-0.18087 0.35657-0.18604 0.52193-0.47542 0.1912-0.3204 0.1912-1.0542z"/>
			<path d="m9.4188 131.46v1.1782q0 0.42891-0.20154 0.64595-0.20154 0.21187-0.5116 0.21187-0.30489 0-0.50126-0.21704-0.19637-0.21704-0.19637-0.64078v-3.9274q0-0.95084 0.68729-0.95084 0.3514 0 0.50643 0.2222 0.15503 0.22221 0.17053 0.65629 0.25321-0.43408 0.51676-0.65629 0.26872-0.2222 0.71313-0.2222t0.86299 0.2222q0.41858 0.22221 0.41858 0.58911 0 0.25838-0.18087 0.42892-0.1757 0.16536-0.3824 0.16536-0.07751 0-0.37724-0.093-0.29455-0.0982-0.52193-0.0982-0.31006 0-0.50643 0.16536-0.19637 0.1602-0.30489 0.48059-0.10852 0.32039-0.14986 0.76481-0.041341 0.43925-0.041341 1.0749z"/>
			<path d="m15.956 132.7q-0.5116 0.3979-0.99218 0.59944-0.47542 0.19637-1.0697 0.19637-0.5426 0-0.95601-0.21187-0.40824-0.21704-0.63045-0.58394t-0.22221-0.79582q0-0.57877 0.3669-0.98701 0.3669-0.40825 1.0077-0.54777 0.13436-0.031 0.66662-0.13953 0.53227-0.10852 0.9095-0.19637 0.3824-0.093 0.82682-0.22221-0.02584-0.5581-0.22738-0.81648-0.19637-0.26355-0.82165-0.26355-0.53743 0-0.81132 0.14986-0.26872 0.14986-0.46509 0.44958-0.1912 0.29973-0.27388 0.39791-0.07752 0.093-0.34106 0.093-0.23771 0-0.41341-0.14986-0.17053-0.15503-0.17053-0.39274 0-0.37207 0.26355-0.72347t0.82165-0.57877q0.5581-0.22738 1.3901-0.22738 0.93017 0 1.4624 0.22221 0.53226 0.21704 0.74931 0.69246 0.22221 0.47542 0.22221 1.2609 0 0.49609-0.0052 0.84232 0 0.34624-0.0052 0.76998 0 0.39791 0.12919 0.83199 0.13436 0.42891 0.13436 0.55293 0 0.21705-0.2067 0.39791-0.20154 0.1757-0.45992 0.1757-0.21704 0-0.42891-0.20154-0.21187-0.2067-0.44958-0.59427zm-0.09302-2.0412q-0.31006 0.11369-0.90434 0.24288-0.58911 0.12403-0.81648 0.18604-0.22738 0.0568-0.43408 0.23254-0.2067 0.17053-0.2067 0.48059 0 0.32039 0.24288 0.54777 0.24288 0.22221 0.63562 0.22221 0.41858 0 0.76998-0.18087 0.35657-0.18604 0.52193-0.47542 0.1912-0.3204 0.1912-1.0542z"/>
			<path d="m23.371 130.73v1.8758q0 0.44442-0.20154 0.66662-0.20154 0.22221-0.53227 0.22221-0.32039 0-0.52193-0.22221-0.19637-0.2222-0.19637-0.66662v-2.2479q0-0.53226-0.03617-0.82682-0.03617-0.29455-0.19637-0.48059-0.1602-0.1912-0.50643-0.1912-0.69246 0-0.91467 0.47542-0.21704 0.47542-0.21704 1.3643v1.9068q0 0.43925-0.20154 0.66662-0.19637 0.22221-0.52193 0.22221-0.32039 0-0.5271-0.22221-0.20154-0.22737-0.20154-0.66662v-4.0359q0-0.3979 0.18087-0.60461 0.18603-0.2067 0.48576-0.2067 0.28939 0 0.48059 0.19637 0.19637 0.1912 0.19637 0.53226v0.13436q0.3669-0.43925 0.78548-0.64595 0.41858-0.20671 0.93017-0.20671 0.53227 0 0.91467 0.21187 0.3824 0.21188 0.63045 0.64079 0.35657-0.43408 0.76481-0.64079 0.40824-0.21187 0.90434-0.21187 0.57877 0 0.99735 0.22738 0.41858 0.22737 0.62528 0.65112 0.18087 0.3824 0.18087 1.204v2.7544q0 0.44442-0.20154 0.66662-0.20154 0.22221-0.53226 0.22221-0.32039 0-0.5271-0.22221-0.20154-0.22737-0.20154-0.66662v-2.3719q0-0.45475-0.04134-0.72864-0.03617-0.27388-0.2067-0.45992-0.17053-0.18603-0.51676-0.18603-0.27905 0-0.53226 0.16536-0.24805 0.16537-0.38757 0.44442-0.15503 0.35657-0.15503 1.2609z"/>
			<path d="m31.981 130.97h-2.7595q0.0052 0.48059 0.1912 0.84749 0.1912 0.3669 0.50126 0.55294 0.31522 0.18603 0.69246 0.18603 0.25321 0 0.45992-0.0568 0.21187-0.062 0.40824-0.18604 0.19637-0.12919 0.36173-0.27388 0.16536-0.1447 0.42891-0.39274 0.10852-0.093 0.31006-0.093 0.21704 0 0.3514 0.11886 0.13436 0.11885 0.13436 0.33589 0 0.1912-0.14986 0.44959-0.14986 0.25321-0.45475 0.49092-0.29972 0.23254-0.75964 0.38757-0.45475 0.15503-1.049 0.15503-1.3591 0-2.1136-0.77514-0.75447-0.77515-0.75447-2.1032 0-0.62528 0.18603-1.1576 0.18604-0.53743 0.5426-0.91983 0.35657-0.38241 0.8785-0.58394 0.52193-0.20671 1.1575-0.20671 0.82682 0 1.4159 0.3514 0.59428 0.34623 0.88883 0.89917 0.29456 0.55293 0.29456 1.1265 0 0.53226-0.30489 0.69246-0.30489 0.15503-0.85783 0.15503zm-2.7595-0.80098h2.558q-0.05168-0.72347-0.39274-1.08-0.3359-0.36173-0.88883-0.36173-0.5271 0-0.86816 0.3669-0.3359 0.36173-0.40824 1.0749z"/>
			<path d="m34.409 127.88h0.15503v-0.84749q0-0.34107 0.0155-0.53227 0.02067-0.19637 0.10335-0.33589 0.08268-0.1447 0.23771-0.23255 0.15503-0.093 0.34623-0.093 0.26872 0 0.48576 0.20153 0.14469 0.13436 0.18087 0.33073 0.04134 0.1912 0.04134 0.54777v0.96118h0.51676q0.29972 0 0.45475 0.14469 0.1602 0.13953 0.1602 0.36174 0 0.28422-0.22738 0.3979-0.22221 0.11369-0.64078 0.11369h-0.26355v2.5942q0 0.33073 0.02067 0.51159 0.02584 0.1757 0.12402 0.28939 0.10335 0.10852 0.33073 0.10852 0.12402 0 0.3359-0.0413 0.21187-0.0465 0.33073-0.0465 0.17053 0 0.30489 0.13953 0.13953 0.13436 0.13953 0.33589 0 0.34107-0.37207 0.52193-0.37207 0.18087-1.0697 0.18087-0.66146 0-1.0025-0.22221-0.34106-0.2222-0.44958-0.61494-0.10335-0.39274-0.10335-1.049v-2.7078h-0.18604q-0.30489 0-0.46509-0.14469-0.1602-0.1447-0.1602-0.3669 0-0.22221 0.16536-0.36174 0.17053-0.14469 0.49092-0.14469z"/>
			<path d="m42.016 130.97h-2.7595q0.0052 0.48059 0.1912 0.84749 0.1912 0.3669 0.50126 0.55294 0.31522 0.18603 0.69246 0.18603 0.25321 0 0.45992-0.0568 0.21187-0.062 0.40824-0.18604 0.19637-0.12919 0.36173-0.27388 0.16536-0.1447 0.42891-0.39274 0.10852-0.093 0.31006-0.093 0.21704 0 0.3514 0.11886 0.13436 0.11885 0.13436 0.33589 0 0.1912-0.14986 0.44959-0.14986 0.25321-0.45475 0.49092-0.29972 0.23254-0.75964 0.38757-0.45475 0.15503-1.049 0.15503-1.3591 0-2.1136-0.77514-0.75447-0.77515-0.75447-2.1032 0-0.62528 0.18604-1.1576 0.18603-0.53743 0.5426-0.91983 0.35657-0.38241 0.8785-0.58394 0.52193-0.20671 1.1575-0.20671 0.82682 0 1.4159 0.3514 0.59428 0.34623 0.88883 0.89917 0.29456 0.55293 0.29456 1.1265 0 0.53226-0.30489 0.69246-0.30489 0.15503-0.85783 0.15503zm-2.7595-0.80098h2.558q-0.05168-0.72347-0.39274-1.08-0.3359-0.36173-0.88883-0.36173-0.5271 0-0.86816 0.3669-0.3359 0.36173-0.40824 1.0749z"/>
			<path d="m45.768 131.46v1.1782q0 0.42891-0.20154 0.64595-0.20154 0.21187-0.5116 0.21187-0.30489 0-0.50126-0.21704t-0.19637-0.64078v-3.9274q0-0.95084 0.6873-0.95084 0.3514 0 0.50643 0.2222 0.15503 0.22221 0.17053 0.65629 0.25321-0.43408 0.51676-0.65629 0.26872-0.2222 0.71313-0.2222t0.86299 0.2222q0.41858 0.22221 0.41858 0.58911 0 0.25838-0.18087 0.42892-0.1757 0.16536-0.3824 0.16536-0.07751 0-0.37724-0.093-0.29456-0.0982-0.52193-0.0982-0.31006 0-0.50643 0.16536-0.19637 0.1602-0.30489 0.48059-0.10852 0.32039-0.14986 0.76481-0.04134 0.43925-0.04134 1.0749z"/>
			<path d="m53.282 131.65q0 0.58394-0.28422 1.0025-0.28422 0.41341-0.84232 0.63045-0.55294 0.21187-1.3488 0.21187-0.75964 0-1.3022-0.23254t-0.80098-0.57878q-0.25838-0.35139-0.25838-0.70279 0-0.23255 0.16536-0.39791t0.41858-0.16536q0.22221 0 0.34106 0.10852 0.11886 0.10852 0.22738 0.30489 0.21704 0.37723 0.51676 0.56327 0.30489 0.18603 0.82682 0.18603 0.42375 0 0.69246-0.18603 0.27388-0.19121 0.27388-0.43408 0-0.37207-0.28422-0.5426-0.27905-0.17054-0.925-0.32556-0.72864-0.18087-1.1886-0.37724-0.45475-0.20154-0.72864-0.5271-0.27388-0.32556-0.27388-0.80098 0-0.42375 0.25321-0.80098 0.25321-0.37724 0.74414-0.59945 0.49609-0.22737 1.1937-0.22737 0.54777 0 0.98185 0.11368 0.43925 0.11369 0.72864 0.30489 0.29456 0.19121 0.44442 0.42375 0.15503 0.23254 0.15503 0.45475 0 0.24288-0.16536 0.39791-0.1602 0.15503-0.45992 0.15503-0.21704 0-0.37207-0.12403-0.14986-0.12402-0.34623-0.37207-0.1602-0.2067-0.37724-0.33072-0.21704-0.12403-0.58911-0.12403-0.3824 0-0.63562 0.16537-0.25321 0.16019-0.25321 0.40307 0 0.22221 0.18604 0.3669 0.18603 0.13953 0.50126 0.23255 0.31523 0.093 0.86816 0.22737 0.65629 0.1602 1.0697 0.38241 0.41858 0.2222 0.63045 0.52709 0.21704 0.29973 0.21704 0.6873z"/>
			<path d="m-4.0093 144.88q0 0.58394-0.28422 1.0025-0.28422 0.41341-0.84232 0.63045-0.55294 0.21187-1.3488 0.21187-0.75964 0-1.3022-0.23254t-0.80098-0.57877q-0.25838-0.3514-0.25838-0.7028 0-0.23254 0.16536-0.39791 0.16536-0.16536 0.41858-0.16536 0.22221 0 0.34106 0.10852t0.22738 0.30489q0.21704 0.37723 0.51676 0.56327 0.30489 0.18603 0.82682 0.18603 0.42375 0 0.69246-0.18603 0.27388-0.1912 0.27388-0.43408 0-0.37207-0.28422-0.5426-0.27905-0.17053-0.92501-0.32556-0.72864-0.18087-1.1886-0.37724-0.45475-0.20154-0.72864-0.5271-0.27388-0.32556-0.27388-0.80098 0-0.42374 0.25321-0.80098 0.25321-0.37724 0.74414-0.59945 0.49609-0.22737 1.1937-0.22737 0.54777 0 0.98185 0.11369 0.43925 0.11368 0.72864 0.30489 0.29455 0.1912 0.44442 0.42374 0.15503 0.23254 0.15503 0.45475 0 0.24288-0.16536 0.39791-0.1602 0.15503-0.45992 0.15503-0.21704 0-0.37207-0.12402-0.14986-0.12403-0.34623-0.37207-0.1602-0.20671-0.37724-0.33073-0.21704-0.12402-0.58911-0.12402-0.3824 0-0.63562 0.16536-0.25321 0.1602-0.25321 0.40307 0 0.22221 0.18603 0.36691 0.18603 0.13952 0.50126 0.23254 0.31523 0.093 0.86816 0.22737 0.65629 0.1602 1.0697 0.38241 0.41858 0.22221 0.63045 0.5271 0.21704 0.29972 0.21704 0.68729z"/>
			<path d="m1.1221 144.2h-2.7595q0.00517 0.48059 0.1912 0.84749 0.1912 0.3669 0.50126 0.55294 0.31523 0.18603 0.69246 0.18603 0.25321 0 0.45992-0.0568 0.21187-0.062 0.40824-0.18604 0.19637-0.12919 0.36173-0.27388 0.16536-0.14469 0.42891-0.39274 0.10852-0.093 0.31006-0.093 0.21704 0 0.3514 0.11886 0.13436 0.11885 0.13436 0.33589 0 0.19121-0.14986 0.44959-0.14986 0.25321-0.45475 0.49092-0.29972 0.23255-0.75964 0.38758-0.45475 0.15502-1.049 0.15502-1.3591 0-2.1136-0.77514-0.75447-0.77514-0.75447-2.1032 0-0.62529 0.18603-1.1576 0.18603-0.53744 0.5426-0.91984 0.35657-0.3824 0.8785-0.58394 0.52193-0.20671 1.1575-0.20671 0.82682 0 1.4159 0.3514 0.59428 0.34623 0.88883 0.89917 0.29455 0.55293 0.29455 1.1265 0 0.53227-0.30489 0.69246-0.30489 0.15503-0.85783 0.15503zm-2.7595-0.80098h2.558q-0.051676-0.72347-0.39274-1.08-0.3359-0.36174-0.88883-0.36174-0.5271 0-0.86816 0.3669-0.3359 0.36174-0.40824 1.0749z"/>
			<path d="m4.6361 141.78v0.17054q0.39791-0.49093 0.82682-0.7183 0.42891-0.23255 0.97151-0.23255 0.65112 0 1.1989 0.3359 0.54777 0.33589 0.86299 0.98185 0.32039 0.64595 0.32039 1.5296 0 0.65112-0.18603 1.1989-0.18087 0.5426-0.50126 0.91467-0.32039 0.3669-0.75964 0.56843-0.43408 0.19637-0.93534 0.19637-0.60461 0-1.018-0.24287-0.40824-0.24288-0.78031-0.71314v2.1187q0 0.93017-0.67696 0.93017-0.39791 0-0.5271-0.24288-0.12919-0.23771-0.12919-0.69763v-6.0875q0-0.40307 0.1757-0.59944 0.1757-0.20154 0.48059-0.20154 0.29972 0 0.48576 0.2067 0.1912 0.20154 0.1912 0.58394zm2.7647 2.0516q0-0.5581-0.17053-0.95601-0.17053-0.40307-0.47542-0.61495-0.29972-0.21704-0.66662-0.21704-0.58394 0-0.98702 0.45992-0.39791 0.45992-0.39791 1.3539 0 0.84232 0.39791 1.3126 0.39791 0.46508 0.98702 0.46508 0.3514 0 0.65112-0.20153 0.29972-0.20671 0.48059-0.61495t0.18087-0.98702z"/>
			<path d="m13.514 145.93q-0.5116 0.39791-0.99218 0.59944-0.47542 0.19637-1.0697 0.19637-0.5426 0-0.95601-0.21187-0.40824-0.21704-0.63045-0.58394-0.22221-0.3669-0.22221-0.79582 0-0.57877 0.3669-0.98701 0.3669-0.40824 1.0077-0.54777 0.13436-0.031 0.66662-0.13953 0.53226-0.10852 0.9095-0.19637 0.3824-0.093 0.82682-0.2222-0.02584-0.55811-0.22738-0.81649-0.19637-0.26355-0.82165-0.26355-0.53743 0-0.81132 0.14986-0.26872 0.14986-0.46509 0.44959-0.1912 0.29972-0.27388 0.3979-0.07751 0.093-0.34106 0.093-0.23771 0-0.41341-0.14986-0.17053-0.15503-0.17053-0.39274 0-0.37207 0.26355-0.72347 0.26355-0.3514 0.82165-0.57877 0.5581-0.22738 1.3901-0.22738 0.93017 0 1.4624 0.22221 0.53227 0.21704 0.74931 0.69246 0.22221 0.47542 0.22221 1.2609 0 0.4961-0.0052 0.84233 0 0.34623-0.0052 0.76997 0 0.39791 0.12919 0.83199 0.13436 0.42891 0.13436 0.55294 0 0.21704-0.2067 0.3979-0.20154 0.1757-0.45992 0.1757-0.21704 0-0.42891-0.20153-0.21187-0.20671-0.44958-0.59428zm-0.09302-2.0412q-0.31006 0.11368-0.90433 0.24288-0.58911 0.12402-0.81648 0.18603-0.22738 0.0568-0.43408 0.23254-0.2067 0.17053-0.2067 0.48059 0 0.3204 0.24288 0.54777 0.24288 0.22221 0.63562 0.22221 0.41858 0 0.76998-0.18087 0.35657-0.18603 0.52193-0.47542 0.1912-0.32039 0.1912-1.0542z"/>
			<path d="m17.638 144.69v1.1782q0 0.42891-0.20154 0.64595-0.20154 0.21187-0.5116 0.21187-0.30489 0-0.50126-0.21704t-0.19637-0.64078v-3.9274q0-0.95084 0.6873-0.95084 0.3514 0 0.50643 0.22221 0.15503 0.2222 0.17053 0.65628 0.25321-0.43408 0.51676-0.65628 0.26872-0.22221 0.71313-0.22221t0.86299 0.22221q0.41858 0.2222 0.41858 0.58911 0 0.25838-0.18087 0.42891-0.1757 0.16536-0.3824 0.16536-0.07751 0-0.37724-0.093-0.29456-0.0982-0.52193-0.0982-0.31006 0-0.50643 0.16536-0.19637 0.1602-0.30489 0.48059-0.10852 0.3204-0.14986 0.76481-0.04134 0.43925-0.04134 1.0749z"/>
			<path d="m24.175 145.93q-0.5116 0.39791-0.99218 0.59944-0.47542 0.19637-1.0697 0.19637-0.5426 0-0.95601-0.21187-0.40824-0.21704-0.63045-0.58394t-0.22221-0.79582q0-0.57877 0.3669-0.98701 0.3669-0.40824 1.0077-0.54777 0.13436-0.031 0.66662-0.13953 0.53226-0.10852 0.9095-0.19637 0.3824-0.093 0.82682-0.2222-0.02584-0.55811-0.22738-0.81649-0.19637-0.26355-0.82165-0.26355-0.53743 0-0.81132 0.14986-0.26872 0.14986-0.46509 0.44959-0.1912 0.29972-0.27388 0.3979-0.07751 0.093-0.34106 0.093-0.23771 0-0.41341-0.14986-0.17053-0.15503-0.17053-0.39274 0-0.37207 0.26355-0.72347t0.82165-0.57877q0.5581-0.22738 1.3901-0.22738 0.93017 0 1.4624 0.22221 0.53226 0.21704 0.74931 0.69246 0.22221 0.47542 0.22221 1.2609 0 0.4961-0.0052 0.84233 0 0.34623-0.0052 0.76997 0 0.39791 0.12919 0.83199 0.13436 0.42891 0.13436 0.55294 0 0.21704-0.2067 0.3979-0.20154 0.1757-0.45992 0.1757-0.21704 0-0.42891-0.20153-0.21187-0.20671-0.44958-0.59428zm-0.09302-2.0412q-0.31006 0.11368-0.90434 0.24288-0.58911 0.12402-0.81648 0.18603-0.22738 0.0568-0.43408 0.23254-0.2067 0.17053-0.2067 0.48059 0 0.3204 0.24288 0.54777 0.24288 0.22221 0.63562 0.22221 0.41858 0 0.76998-0.18087 0.35657-0.18603 0.52193-0.47542 0.1912-0.32039 0.1912-1.0542z"/>
			<path d="m26.712 141.11h0.15503v-0.84749q0-0.34106 0.0155-0.53227 0.02067-0.19637 0.10335-0.33589 0.08268-0.14469 0.23771-0.23254 0.15503-0.093 0.34623-0.093 0.26872 0 0.48576 0.20154 0.14469 0.13435 0.18087 0.33072 0.04134 0.19121 0.04134 0.54777v0.96118h0.51676q0.29972 0 0.45475 0.14469 0.1602 0.13953 0.1602 0.36174 0 0.28422-0.22738 0.39791-0.22221 0.11368-0.64079 0.11368h-0.26355v2.5942q0 0.33073 0.02067 0.5116 0.02584 0.1757 0.12402 0.28938 0.10335 0.10852 0.33073 0.10852 0.12402 0 0.3359-0.0413 0.21187-0.0465 0.33073-0.0465 0.17053 0 0.30489 0.13953 0.13953 0.13436 0.13953 0.3359 0 0.34106-0.37207 0.52193-0.37207 0.18086-1.0697 0.18086-0.66146 0-1.0025-0.2222-0.34106-0.22221-0.44958-0.61495-0.10335-0.39274-0.10335-1.049v-2.7078h-0.18603q-0.30489 0-0.46509-0.14469-0.1602-0.14469-0.1602-0.3669t0.16536-0.36174q0.17053-0.14469 0.49092-0.14469z"/>
			<path d="m34.319 144.2h-2.7595q0.0052 0.48059 0.1912 0.84749 0.1912 0.3669 0.50126 0.55294 0.31523 0.18603 0.69246 0.18603 0.25321 0 0.45992-0.0568 0.21187-0.062 0.40824-0.18604 0.19637-0.12919 0.36173-0.27388t0.42891-0.39274q0.10852-0.093 0.31006-0.093 0.21704 0 0.3514 0.11886 0.13436 0.11885 0.13436 0.33589 0 0.19121-0.14986 0.44959-0.14986 0.25321-0.45475 0.49092-0.29972 0.23255-0.75964 0.38758-0.45475 0.15502-1.049 0.15502-1.3591 0-2.1136-0.77514-0.75447-0.77514-0.75447-2.1032 0-0.62529 0.18603-1.1576 0.18604-0.53744 0.5426-0.91984t0.8785-0.58394q0.52193-0.20671 1.1575-0.20671 0.82682 0 1.4159 0.3514 0.59428 0.34623 0.88883 0.89917 0.29456 0.55293 0.29456 1.1265 0 0.53227-0.30489 0.69246-0.30489 0.15503-0.85783 0.15503zm-2.7595-0.80098h2.558q-0.05168-0.72347-0.39274-1.08-0.3359-0.36174-0.88883-0.36174-0.5271 0-0.86816 0.3669-0.3359 0.36174-0.40824 1.0749z"/>
			<path d="m40.536 145.92v-0.13952q-0.28422 0.32556-0.56327 0.53226-0.27388 0.20154-0.59944 0.30489-0.32039 0.10852-0.7028 0.10852-0.50643 0-0.94051-0.21187-0.42891-0.21704-0.74414-0.61495-0.31522-0.3979-0.48059-0.93534-0.1602-0.53743-0.1602-1.1627 0-1.3229 0.64595-2.0619 0.64595-0.73897 1.7001-0.73897 0.60978 0 1.0284 0.21188 0.41858 0.2067 0.81648 0.64078v-2.0826q0-0.43408 0.17053-0.65629 0.1757-0.22221 0.49609-0.22221t0.49092 0.20671q0.1757 0.20153 0.1757 0.59944v6.2218q0 0.40308-0.18604 0.60462-0.18604 0.20153-0.48059 0.20153-0.28939 0-0.48059-0.2067-0.18603-0.21187-0.18603-0.59945zm-2.775-2.0722q0 0.5736 0.1757 0.97668 0.18087 0.40307 0.49092 0.60978 0.31006 0.20153 0.67696 0.20153 0.37207 0 0.67696-0.1912 0.31006-0.19637 0.49092-0.59427 0.18603-0.40308 0.18603-1.0025 0-0.56328-0.18603-0.96635-0.18087-0.40824-0.49609-0.62012-0.31006-0.21704-0.68213-0.21704-0.38757 0-0.69246 0.22221-0.30489 0.21704-0.47542 0.63045-0.16536 0.40824-0.16536 0.95085z"/>
			<path d="m47.233 139.69v2.1549q0.39791-0.41341 0.81132-0.63045 0.41341-0.22221 1.0232-0.22221 0.7028 0 1.2299 0.3359 0.53227 0.33073 0.82165 0.96635 0.29455 0.63045 0.29455 1.4986 0 0.64078-0.16536 1.1782-0.1602 0.53226-0.47025 0.925-0.31006 0.39274-0.75447 0.60978-0.43925 0.21187-0.97151 0.21187-0.32556 0-0.61495-0.0775-0.28422-0.0775-0.48576-0.20154-0.20154-0.12919-0.34623-0.26355-0.13952-0.13436-0.37207-0.40307v0.13952q0 0.39791-0.1912 0.60462-0.1912 0.20153-0.48576 0.20153-0.29972 0-0.48059-0.20153-0.1757-0.20671-0.1757-0.60462v-6.1598q0-0.42891 0.17053-0.64595 0.1757-0.22221 0.48576-0.22221 0.32556 0 0.50126 0.21187 0.1757 0.20671 0.1757 0.59428zm0.06718 4.191q0 0.84232 0.3824 1.2971 0.38757 0.44958 1.0129 0.44958 0.53226 0 0.91467-0.45991 0.38757-0.46509 0.38757-1.3281 0-0.55811-0.1602-0.96118-0.1602-0.40308-0.45475-0.62012-0.29456-0.22221-0.68729-0.22221-0.40308 0-0.7183 0.22221-0.31523 0.21704-0.49609 0.63562-0.18087 0.41341-0.18087 0.98702z"/>
			<path d="m53.708 146.9 0.12919-0.31522-1.7363-4.3718q-0.1602-0.37724-0.1602-0.54777 0-0.18087 0.09302-0.3359t0.25321-0.24804q0.16536-0.093 0.34106-0.093 0.30489 0 0.45992 0.19637 0.15503 0.1912 0.27388 0.55293l1.1937 3.4726 1.1317-3.2298q0.13436-0.39274 0.24288-0.61495 0.10852-0.2222 0.22738-0.29972 0.12402-0.0775 0.34623-0.0775 0.1602 0 0.30489 0.0879 0.14986 0.0827 0.22738 0.22737 0.08268 0.1447 0.08268 0.30489-0.02067 0.0982-0.06718 0.27906t-0.11369 0.3669l-1.8397 4.8162q-0.23771 0.63562-0.46509 0.99736-0.22738 0.36173-0.60461 0.55293-0.37207 0.19637-1.0077 0.19637-0.62012 0-0.93017-0.13436-0.31006-0.13435-0.31006-0.49092 0-0.24288 0.14469-0.37724 0.14986-0.12919 0.43925-0.12919 0.11369 0 0.22221 0.031 0.13436 0.031 0.23254 0.031 0.24288 0 0.3824-0.0723 0.13952-0.0724 0.24805-0.25322 0.11369-0.1757 0.25838-0.52193z"/>
			<path d="m8.1372 158.2q0 0.26355-0.1602 0.56327-0.15503 0.29973-0.48059 0.57361-0.32039 0.26872-0.81132 0.43408-0.49092 0.16536-1.1059 0.16536-1.3074 0-2.0412-0.75964-0.7338-0.76481-0.7338-2.0464 0-0.86816 0.3359-1.5348 0.3359-0.66663 0.97151-1.0284 0.63562-0.3669 1.5193-0.3669 0.54777 0 1.0025 0.1602 0.45992 0.16019 0.77514 0.41341 0.32039 0.25321 0.48576 0.5426 0.17053 0.28422 0.17053 0.53226 0 0.25322-0.1912 0.42891-0.18603 0.1757-0.45475 0.1757-0.1757 0-0.29455-0.0879-0.11369-0.093-0.25838-0.29455-0.25838-0.39274-0.5426-0.58911-0.27905-0.19637-0.71313-0.19637-0.62528 0-1.0077 0.49092-0.3824 0.48576-0.3824 1.3332 0 0.39791 0.098185 0.73381 0.098185 0.33072 0.28422 0.56843 0.18603 0.23255 0.44958 0.35657 0.26355 0.11886 0.57877 0.11886 0.42375 0 0.72347-0.19637 0.30489-0.19637 0.53743-0.59945 0.12919-0.23771 0.27905-0.37207t0.3669-0.13436q0.25838 0 0.42891 0.19637t0.17053 0.41858z"/>
			<path d="m14.648 157.08q0 0.63045-0.19637 1.1627-0.19637 0.53227-0.56844 0.91467-0.37207 0.38241-0.88883 0.58911-0.51676 0.20154-1.1627 0.20154-0.64079 0-1.1524-0.20671-0.5116-0.2067-0.88883-0.5891-0.37207-0.38758-0.56844-0.90951-0.1912-0.52709-0.1912-1.1627 0-0.64079 0.19637-1.173 0.19637-0.53227 0.56327-0.90951 0.3669-0.37723 0.88883-0.57877 0.52193-0.20671 1.1524-0.20671 0.64079 0 1.1627 0.20671 0.52193 0.2067 0.894 0.58911 0.37207 0.3824 0.56327 0.9095 0.19637 0.5271 0.19637 1.1627zm-1.4159 0q0-0.863-0.3824-1.3436-0.37724-0.48059-1.018-0.48059-0.41341 0-0.72864 0.21704-0.31523 0.21188-0.48576 0.63046-0.17053 0.41857-0.17053 0.97668 0 0.55293 0.16536 0.96634 0.17053 0.41341 0.48059 0.63562 0.31523 0.21704 0.73897 0.21704 0.64079 0 1.018-0.48059 0.3824-0.48575 0.3824-1.3384z"/>
			<path d="m20.452 157.19v1.8758q0 0.44441-0.20154 0.66662-0.20154 0.22221-0.53226 0.22221-0.32039 0-0.52193-0.22221-0.19637-0.22221-0.19637-0.66662v-2.2479q0-0.53227-0.03617-0.82682t-0.19637-0.48059q-0.1602-0.1912-0.50643-0.1912-0.69246 0-0.91467 0.47542-0.21704 0.47542-0.21704 1.3642v1.9069q0 0.43925-0.20154 0.66662-0.19637 0.22221-0.52193 0.22221-0.32039 0-0.5271-0.22221-0.20154-0.22737-0.20154-0.66662v-4.0359q0-0.39791 0.18087-0.60461 0.18604-0.20671 0.48576-0.20671 0.28939 0 0.48059 0.19637 0.19637 0.19121 0.19637 0.53227v0.13436q0.3669-0.43925 0.78548-0.64596 0.41858-0.2067 0.93017-0.2067 0.53226 0 0.91467 0.21187 0.3824 0.21187 0.63045 0.64079 0.35657-0.43408 0.76481-0.64079 0.40824-0.21187 0.90433-0.21187 0.57878 0 0.99735 0.22737 0.41858 0.22738 0.62528 0.65113 0.18087 0.3824 0.18087 1.204v2.7544q0 0.44441-0.20154 0.66662-0.20154 0.22221-0.53227 0.22221-0.32039 0-0.5271-0.22221-0.20154-0.22737-0.20154-0.66662v-2.3719q0-0.45475-0.04134-0.72864-0.03617-0.27388-0.2067-0.45992-0.17053-0.18603-0.51676-0.18603-0.27905 0-0.53227 0.16536-0.24805 0.16537-0.38757 0.44442-0.15503 0.35656-0.15503 1.2609z"/>
			<path d="m29.815 157.19v1.8758q0 0.44441-0.20154 0.66662-0.20154 0.22221-0.53226 0.22221-0.32039 0-0.52193-0.22221-0.19637-0.22221-0.19637-0.66662v-2.2479q0-0.53227-0.03617-0.82682t-0.19637-0.48059q-0.1602-0.1912-0.50643-0.1912-0.69246 0-0.91467 0.47542-0.21704 0.47542-0.21704 1.3642v1.9069q0 0.43925-0.20154 0.66662-0.19637 0.22221-0.52193 0.22221-0.32039 0-0.5271-0.22221-0.20154-0.22737-0.20154-0.66662v-4.0359q0-0.39791 0.18087-0.60461 0.18604-0.20671 0.48576-0.20671 0.28939 0 0.48059 0.19637 0.19637 0.19121 0.19637 0.53227v0.13436q0.3669-0.43925 0.78548-0.64596 0.41858-0.2067 0.93017-0.2067 0.53227 0 0.91467 0.21187 0.3824 0.21187 0.63045 0.64079 0.35657-0.43408 0.76481-0.64079 0.40824-0.21187 0.90433-0.21187 0.57878 0 0.99735 0.22737 0.41858 0.22738 0.62528 0.65113 0.18087 0.3824 0.18087 1.204v2.7544q0 0.44441-0.20154 0.66662-0.20154 0.22221-0.53227 0.22221-0.32039 0-0.5271-0.22221-0.20154-0.22737-0.20154-0.66662v-2.3719q0-0.45475-0.04134-0.72864-0.03617-0.27388-0.2067-0.45992-0.17053-0.18603-0.51676-0.18603-0.27905 0-0.53227 0.16536-0.24805 0.16537-0.38757 0.44442-0.15503 0.35656-0.15503 1.2609z"/>
			<path d="m38.053 159.15q-0.5116 0.3979-0.99218 0.59944-0.47542 0.19637-1.0697 0.19637-0.5426 0-0.95601-0.21187-0.40824-0.21704-0.63045-0.58394-0.22221-0.36691-0.22221-0.79582 0-0.57877 0.3669-0.98702 0.3669-0.40824 1.0077-0.54776 0.13436-0.031 0.66662-0.13953 0.53227-0.10852 0.9095-0.19637 0.3824-0.093 0.82682-0.22221-0.02584-0.5581-0.22738-0.81648-0.19637-0.26355-0.82165-0.26355-0.53743 0-0.81132 0.14986-0.26872 0.14986-0.46509 0.44958-0.1912 0.29972-0.27388 0.39791-0.07751 0.093-0.34106 0.093-0.23771 0-0.41341-0.14986-0.17053-0.15503-0.17053-0.39274 0-0.37207 0.26355-0.72347t0.82165-0.57878q0.5581-0.22737 1.3901-0.22737 0.93017 0 1.4624 0.22221 0.53226 0.21704 0.74931 0.69246 0.22221 0.47542 0.22221 1.2609 0 0.49609-0.0052 0.84232 0 0.34623-0.0052 0.76998 0 0.39791 0.12919 0.83199 0.13436 0.42891 0.13436 0.55293 0 0.21704-0.2067 0.39791-0.20154 0.1757-0.45992 0.1757-0.21704 0-0.42891-0.20154-0.21187-0.2067-0.44958-0.59427zm-0.09302-2.0412q-0.31006 0.11369-0.90434 0.24288-0.58911 0.12402-0.81648 0.18604-0.22738 0.0568-0.43408 0.23254-0.2067 0.17053-0.2067 0.48059 0 0.32039 0.24288 0.54777 0.24288 0.2222 0.63562 0.2222 0.41858 0 0.76998-0.18086 0.35657-0.18604 0.52193-0.47542 0.1912-0.3204 0.1912-1.0542z"/>
			<path d="m45.318 158.11q0 0.58394-0.28422 1.0025-0.28422 0.41341-0.84232 0.63045-0.55294 0.21187-1.3488 0.21187-0.75964 0-1.3022-0.23254-0.5426-0.23255-0.80098-0.57878-0.25838-0.3514-0.25838-0.70279 0-0.23255 0.16536-0.39791 0.16536-0.16537 0.41858-0.16537 0.22221 0 0.34106 0.10852 0.11886 0.10852 0.22738 0.30489 0.21704 0.37724 0.51676 0.56328 0.30489 0.18603 0.82682 0.18603 0.42374 0 0.69246-0.18603 0.27388-0.19121 0.27388-0.43409 0-0.37206-0.28422-0.5426-0.27905-0.17053-0.92501-0.32556-0.72864-0.18086-1.1886-0.37723-0.45475-0.20154-0.72864-0.5271t-0.27388-0.80098q0-0.42375 0.25321-0.80099 0.25321-0.37723 0.74414-0.59944 0.49609-0.22738 1.1937-0.22738 0.54777 0 0.98185 0.11369 0.43925 0.11369 0.72864 0.30489 0.29456 0.1912 0.44442 0.42375 0.15503 0.23254 0.15503 0.45475 0 0.24288-0.16536 0.39791-0.1602 0.15502-0.45992 0.15502-0.21704 0-0.37207-0.12402-0.14986-0.12402-0.34623-0.37207-0.1602-0.2067-0.37724-0.33073-0.21704-0.12402-0.58911-0.12402-0.3824 0-0.63562 0.16537-0.25321 0.16019-0.25321 0.40307 0 0.22221 0.18603 0.3669 0.18604 0.13953 0.50126 0.23254 0.31522 0.093 0.86816 0.22738 0.65629 0.1602 1.0697 0.3824 0.41858 0.22221 0.63045 0.5271 0.21704 0.29973 0.21704 0.6873z"/>
		</g>
	</g>
</svg>
